<svg viewBox="0 0 1033 400" xmlns="http://www.w3.org/2000/svg"><g><g><g><g><g><line x1="48.8125" y1="376.54676410579276" x2="43.8125" y2="376.54676410579276" style="visibility: inherit;" fill="rgb(0, 0, 0)" stroke="rgb(204, 204, 204)" stroke-width="1px"></line><line x1="48.8125" y1="369.85865045134864" x2="43.8125" y2="369.85865045134864" style="visibility: inherit;" fill="rgb(0, 0, 0)" stroke="rgb(204, 204, 204)" stroke-width="1px"></line><line x1="48.8125" y1="364.6709464706083" x2="43.8125" y2="364.6709464706083" style="visibility: inherit;" fill="rgb(0, 0, 0)" stroke="rgb(204, 204, 204)" stroke-width="1px"></line><line x1="48.8125" y1="360.4322836888059" x2="43.8125" y2="360.4322836888059" style="visibility: inherit;" fill="rgb(0, 0, 0)" stroke="rgb(204, 204, 204)" stroke-width="1px"></line><line x1="48.8125" y1="356.84854537029344" x2="43.8125" y2="356.84854537029344" style="visibility: inherit;" fill="rgb(0, 0, 0)" stroke="rgb(204, 204, 204)" stroke-width="1px"></line><line x1="48.8125" y1="353.7441700343618" x2="43.8125" y2="353.7441700343618" style="visibility: inherit;" fill="rgb(0, 0, 0)" stroke="rgb(204, 204, 204)" stroke-width="1px"></line><line x1="48.8125" y1="351.0059169262631" x2="43.8125" y2="351.0059169262631" style="visibility: inherit;" fill="rgb(0, 0, 0)" stroke="rgb(204, 204, 204)" stroke-width="1px"></line><line x1="48.8125" y1="348.5564660536215" x2="43.8125" y2="348.5564660536215" style="visibility: inherit;" fill="rgb(0, 0, 0)" stroke="rgb(204, 204, 204)" stroke-width="1px"></line><line x1="48.8125" y1="332.44198563663457" x2="43.8125" y2="332.44198563663457" style="visibility: inherit;" fill="rgb(0, 0, 0)" stroke="rgb(204, 204, 204)" stroke-width="1px"></line><line x1="48.8125" y1="323.01561887409184" x2="43.8125" y2="323.01561887409184" style="visibility: inherit;" fill="rgb(0, 0, 0)" stroke="rgb(204, 204, 204)" stroke-width="1px"></line><line x1="48.8125" y1="316.3275052196477" x2="43.8125" y2="316.3275052196477" style="visibility: inherit;" fill="rgb(0, 0, 0)" stroke="rgb(204, 204, 204)" stroke-width="1px"></line><line x1="48.8125" y1="311.1398012389074" x2="43.8125" y2="311.1398012389074" style="visibility: inherit;" fill="rgb(0, 0, 0)" stroke="rgb(204, 204, 204)" stroke-width="1px"></line><line x1="48.8125" y1="306.90113845710493" x2="43.8125" y2="306.90113845710493" style="visibility: inherit;" fill="rgb(0, 0, 0)" stroke="rgb(204, 204, 204)" stroke-width="1px"></line><line x1="48.8125" y1="303.31740013859246" x2="43.8125" y2="303.31740013859246" style="visibility: inherit;" fill="rgb(0, 0, 0)" stroke="rgb(204, 204, 204)" stroke-width="1px"></line><line x1="48.8125" y1="300.2130248026608" x2="43.8125" y2="300.2130248026608" style="visibility: inherit;" fill="rgb(0, 0, 0)" stroke="rgb(204, 204, 204)" stroke-width="1px"></line><line x1="48.8125" y1="297.4747716945622" x2="43.8125" y2="297.4747716945622" style="visibility: inherit;" fill="rgb(0, 0, 0)" stroke="rgb(204, 204, 204)" stroke-width="1px"></line><line x1="48.8125" y1="295.0253208219205" x2="43.8125" y2="295.0253208219205" style="visibility: inherit;" fill="rgb(0, 0, 0)" stroke="rgb(204, 204, 204)" stroke-width="1px"></line><line x1="48.8125" y1="278.91084040493365" x2="43.8125" y2="278.91084040493365" style="visibility: inherit;" fill="rgb(0, 0, 0)" stroke="rgb(204, 204, 204)" stroke-width="1px"></line><line x1="48.8125" y1="269.48447364239087" x2="43.8125" y2="269.48447364239087" style="visibility: inherit;" fill="rgb(0, 0, 0)" stroke="rgb(204, 204, 204)" stroke-width="1px"></line><line x1="48.8125" y1="262.79635998794674" x2="43.8125" y2="262.79635998794674" style="visibility: inherit;" fill="rgb(0, 0, 0)" stroke="rgb(204, 204, 204)" stroke-width="1px"></line><line x1="48.8125" y1="257.60865600720643" x2="43.8125" y2="257.60865600720643" style="visibility: inherit;" fill="rgb(0, 0, 0)" stroke="rgb(204, 204, 204)" stroke-width="1px"></line><line x1="48.8125" y1="253.36999322540402" x2="43.8125" y2="253.36999322540402" style="visibility: inherit;" fill="rgb(0, 0, 0)" stroke="rgb(204, 204, 204)" stroke-width="1px"></line><line x1="48.8125" y1="249.78625490689154" x2="43.8125" y2="249.78625490689154" style="visibility: inherit;" fill="rgb(0, 0, 0)" stroke="rgb(204, 204, 204)" stroke-width="1px"></line><line x1="48.8125" y1="246.68187957095986" x2="43.8125" y2="246.68187957095986" style="visibility: inherit;" fill="rgb(0, 0, 0)" stroke="rgb(204, 204, 204)" stroke-width="1px"></line><line x1="48.8125" y1="243.94362646286126" x2="43.8125" y2="243.94362646286126" style="visibility: inherit;" fill="rgb(0, 0, 0)" stroke="rgb(204, 204, 204)" stroke-width="1px"></line><line x1="48.8125" y1="241.49417559021958" x2="43.8125" y2="241.49417559021958" style="visibility: inherit;" fill="rgb(0, 0, 0)" stroke="rgb(204, 204, 204)" stroke-width="1px"></line><line x1="48.8125" y1="225.37969517323268" x2="43.8125" y2="225.37969517323268" style="visibility: inherit;" fill="rgb(0, 0, 0)" stroke="rgb(204, 204, 204)" stroke-width="1px"></line><line x1="48.8125" y1="215.95332841068995" x2="43.8125" y2="215.95332841068995" style="visibility: inherit;" fill="rgb(0, 0, 0)" stroke="rgb(204, 204, 204)" stroke-width="1px"></line><line x1="48.8125" y1="209.2652147562458" x2="43.8125" y2="209.2652147562458" style="visibility: inherit;" fill="rgb(0, 0, 0)" stroke="rgb(204, 204, 204)" stroke-width="1px"></line><line x1="48.8125" y1="204.07751077550552" x2="43.8125" y2="204.07751077550552" style="visibility: inherit;" fill="rgb(0, 0, 0)" stroke="rgb(204, 204, 204)" stroke-width="1px"></line><line x1="48.8125" y1="199.83884799370304" x2="43.8125" y2="199.83884799370304" style="visibility: inherit;" fill="rgb(0, 0, 0)" stroke="rgb(204, 204, 204)" stroke-width="1px"></line><line x1="48.8125" y1="196.25510967519057" x2="43.8125" y2="196.25510967519057" style="visibility: inherit;" fill="rgb(0, 0, 0)" stroke="rgb(204, 204, 204)" stroke-width="1px"></line><line x1="48.8125" y1="193.15073433925892" x2="43.8125" y2="193.15073433925892" style="visibility: inherit;" fill="rgb(0, 0, 0)" stroke="rgb(204, 204, 204)" stroke-width="1px"></line><line x1="48.8125" y1="190.4124812311603" x2="43.8125" y2="190.4124812311603" style="visibility: inherit;" fill="rgb(0, 0, 0)" stroke="rgb(204, 204, 204)" stroke-width="1px"></line><line x1="48.8125" y1="187.9630303585186" x2="43.8125" y2="187.9630303585186" style="visibility: inherit;" fill="rgb(0, 0, 0)" stroke="rgb(204, 204, 204)" stroke-width="1px"></line><line x1="48.8125" y1="171.84854994153173" x2="43.8125" y2="171.84854994153173" style="visibility: inherit;" fill="rgb(0, 0, 0)" stroke="rgb(204, 204, 204)" stroke-width="1px"></line><line x1="48.8125" y1="162.422183178989" x2="43.8125" y2="162.422183178989" style="visibility: inherit;" fill="rgb(0, 0, 0)" stroke="rgb(204, 204, 204)" stroke-width="1px"></line><line x1="48.8125" y1="155.73406952454485" x2="43.8125" y2="155.73406952454485" style="visibility: inherit;" fill="rgb(0, 0, 0)" stroke="rgb(204, 204, 204)" stroke-width="1px"></line><line x1="48.8125" y1="150.54636554380454" x2="43.8125" y2="150.54636554380454" style="visibility: inherit;" fill="rgb(0, 0, 0)" stroke="rgb(204, 204, 204)" stroke-width="1px"></line><line x1="48.8125" y1="146.3077027620021" x2="43.8125" y2="146.3077027620021" style="visibility: inherit;" fill="rgb(0, 0, 0)" stroke="rgb(204, 204, 204)" stroke-width="1px"></line><line x1="48.8125" y1="142.72396444348962" x2="43.8125" y2="142.72396444348962" style="visibility: inherit;" fill="rgb(0, 0, 0)" stroke="rgb(204, 204, 204)" stroke-width="1px"></line><line x1="48.8125" y1="139.61958910755797" x2="43.8125" y2="139.61958910755797" style="visibility: inherit;" fill="rgb(0, 0, 0)" stroke="rgb(204, 204, 204)" stroke-width="1px"></line><line x1="48.8125" y1="136.88133599945934" x2="43.8125" y2="136.88133599945934" style="visibility: inherit;" fill="rgb(0, 0, 0)" stroke="rgb(204, 204, 204)" stroke-width="1px"></line><line x1="48.8125" y1="134.4318851268177" x2="43.8125" y2="134.4318851268177" style="visibility: inherit;" fill="rgb(0, 0, 0)" stroke="rgb(204, 204, 204)" stroke-width="1px"></line><line x1="48.8125" y1="118.31740470983078" x2="43.8125" y2="118.31740470983078" style="visibility: inherit;" fill="rgb(0, 0, 0)" stroke="rgb(204, 204, 204)" stroke-width="1px"></line><line x1="48.8125" y1="108.891037947288" x2="43.8125" y2="108.891037947288" style="visibility: inherit;" fill="rgb(0, 0, 0)" stroke="rgb(204, 204, 204)" stroke-width="1px"></line><line x1="48.8125" y1="102.20292429284393" x2="43.8125" y2="102.20292429284393" style="visibility: inherit;" fill="rgb(0, 0, 0)" stroke="rgb(204, 204, 204)" stroke-width="1px"></line><line x1="48.8125" y1="97.01522031210357" x2="43.8125" y2="97.01522031210357" style="visibility: inherit;" fill="rgb(0, 0, 0)" stroke="rgb(204, 204, 204)" stroke-width="1px"></line><line x1="48.8125" y1="92.77655753030115" x2="43.8125" y2="92.77655753030115" style="visibility: inherit;" fill="rgb(0, 0, 0)" stroke="rgb(204, 204, 204)" stroke-width="1px"></line><line x1="48.8125" y1="89.19281921178867" x2="43.8125" y2="89.19281921178867" style="visibility: inherit;" fill="rgb(0, 0, 0)" stroke="rgb(204, 204, 204)" stroke-width="1px"></line><line x1="48.8125" y1="86.08844387585702" x2="43.8125" y2="86.08844387585702" style="visibility: inherit;" fill="rgb(0, 0, 0)" stroke="rgb(204, 204, 204)" stroke-width="1px"></line><line x1="48.8125" y1="83.35019076775842" x2="43.8125" y2="83.35019076775842" style="visibility: inherit;" fill="rgb(0, 0, 0)" stroke="rgb(204, 204, 204)" stroke-width="1px"></line><line x1="48.8125" y1="80.90073989511671" x2="43.8125" y2="80.90073989511671" style="visibility: inherit;" fill="rgb(0, 0, 0)" stroke="rgb(204, 204, 204)" stroke-width="1px"></line><line x1="48.8125" y1="64.78625947812981" x2="43.8125" y2="64.78625947812981" style="visibility: inherit;" fill="rgb(0, 0, 0)" stroke="rgb(204, 204, 204)" stroke-width="1px"></line><line x1="48.8125" y1="55.35989271558708" x2="43.8125" y2="55.35989271558708" style="visibility: inherit;" fill="rgb(0, 0, 0)" stroke="rgb(204, 204, 204)" stroke-width="1px"></line><line x1="48.8125" y1="48.6717790611429" x2="43.8125" y2="48.6717790611429" style="visibility: inherit;" fill="rgb(0, 0, 0)" stroke="rgb(204, 204, 204)" stroke-width="1px"></line><line x1="48.8125" y1="43.484075080402704" x2="43.8125" y2="43.484075080402704" style="visibility: inherit;" fill="rgb(0, 0, 0)" stroke="rgb(204, 204, 204)" stroke-width="1px"></line><line x1="48.8125" y1="39.24541229860017" x2="43.8125" y2="39.24541229860017" style="visibility: inherit;" fill="rgb(0, 0, 0)" stroke="rgb(204, 204, 204)" stroke-width="1px"></line><line x1="48.8125" y1="35.6616739800877" x2="43.8125" y2="35.6616739800877" style="visibility: inherit;" fill="rgb(0, 0, 0)" stroke="rgb(204, 204, 204)" stroke-width="1px"></line><line x1="48.8125" y1="32.55729864415605" x2="43.8125" y2="32.55729864415605" style="visibility: inherit;" fill="rgb(0, 0, 0)" stroke="rgb(204, 204, 204)" stroke-width="1px"></line><line x1="48.8125" y1="29.819045536057445" x2="43.8125" y2="29.819045536057445" style="visibility: inherit;" fill="rgb(0, 0, 0)" stroke="rgb(204, 204, 204)" stroke-width="1px"></line><line x1="48.8125" y1="27.36959466341574" x2="43.8125" y2="27.36959466341574" style="visibility: inherit;" fill="rgb(0, 0, 0)" stroke="rgb(204, 204, 204)" stroke-width="1px"></line><line x1="48.8125" y1="11.255114246428889" x2="43.8125" y2="11.255114246428889" style="visibility: inherit;" fill="rgb(0, 0, 0)" stroke="rgb(204, 204, 204)" stroke-width="1px"></line><line x1="48.8125" y1="1.8287474838861044" x2="43.8125" y2="1.8287474838861044" style="visibility: inherit;" fill="rgb(0, 0, 0)" stroke="rgb(204, 204, 204)" stroke-width="1px"></line></g><g transform="translate(38.8125, 0)"><text x="0" y="376.54676410579276" dx="0em" dy="0.3em" style="text-anchor: end; visibility: hidden; font-family: &quot;Helvetica Neue&quot;, sans-serif; font-size: 12px; font-weight: 200;" fill="rgb(50, 49, 63)" stroke="none" stroke-width="1px">3e-6</text><text x="0" y="369.85865045134864" dx="0em" dy="0.3em" style="text-anchor: end; visibility: inherit; font-family: &quot;Helvetica Neue&quot;, sans-serif; font-size: 12px; font-weight: 200;" fill="rgb(50, 49, 63)" stroke="none" stroke-width="1px">4e-6</text><text x="0" y="364.6709464706083" dx="0em" dy="0.3em" style="text-anchor: end; visibility: hidden; font-family: &quot;Helvetica Neue&quot;, sans-serif; font-size: 12px; font-weight: 200;" fill="rgb(50, 49, 63)" stroke="none" stroke-width="1px">5e-6</text><text x="0" y="360.4322836888059" dx="0em" dy="0.3em" style="text-anchor: end; visibility: hidden; font-family: &quot;Helvetica Neue&quot;, sans-serif; font-size: 12px; font-weight: 200;" fill="rgb(50, 49, 63)" stroke="none" stroke-width="1px">6e-6</text><text x="0" y="356.84854537029344" dx="0em" dy="0.3em" style="text-anchor: end; visibility: hidden; font-family: &quot;Helvetica Neue&quot;, sans-serif; font-size: 12px; font-weight: 200;" fill="rgb(50, 49, 63)" stroke="none" stroke-width="1px">7e-6</text><text x="0" y="353.7441700343618" dx="0em" dy="0.3em" style="text-anchor: end; visibility: hidden; font-family: &quot;Helvetica Neue&quot;, sans-serif; font-size: 12px; font-weight: 200;" fill="rgb(50, 49, 63)" stroke="none" stroke-width="1px">8e-6</text><text x="0" y="351.0059169262631" dx="0em" dy="0.3em" style="text-anchor: end; visibility: hidden; font-family: &quot;Helvetica Neue&quot;, sans-serif; font-size: 12px; font-weight: 200;" fill="rgb(50, 49, 63)" stroke="none" stroke-width="1px">9e-6</text><text x="0" y="348.5564660536215" dx="0em" dy="0.3em" style="text-anchor: end; visibility: hidden; font-family: &quot;Helvetica Neue&quot;, sans-serif; font-size: 12px; font-weight: 200;" fill="rgb(50, 49, 63)" stroke="none" stroke-width="1px">1e-5</text><text x="0" y="332.44198563663457" dx="0em" dy="0.3em" style="text-anchor: end; visibility: inherit; font-family: &quot;Helvetica Neue&quot;, sans-serif; font-size: 12px; font-weight: 200;" fill="rgb(50, 49, 63)" stroke="none" stroke-width="1px">2e-5</text><text x="0" y="323.01561887409184" dx="0em" dy="0.3em" style="text-anchor: end; visibility: hidden; font-family: &quot;Helvetica Neue&quot;, sans-serif; font-size: 12px; font-weight: 200;" fill="rgb(50, 49, 63)" stroke="none" stroke-width="1px">3e-5</text><text x="0" y="316.3275052196477" dx="0em" dy="0.3em" style="text-anchor: end; visibility: hidden; font-family: &quot;Helvetica Neue&quot;, sans-serif; font-size: 12px; font-weight: 200;" fill="rgb(50, 49, 63)" stroke="none" stroke-width="1px">4e-5</text><text x="0" y="311.1398012389074" dx="0em" dy="0.3em" style="text-anchor: end; visibility: hidden; font-family: &quot;Helvetica Neue&quot;, sans-serif; font-size: 12px; font-weight: 200;" fill="rgb(50, 49, 63)" stroke="none" stroke-width="1px">5e-5</text><text x="0" y="306.90113845710493" dx="0em" dy="0.3em" style="text-anchor: end; visibility: hidden; font-family: &quot;Helvetica Neue&quot;, sans-serif; font-size: 12px; font-weight: 200;" fill="rgb(50, 49, 63)" stroke="none" stroke-width="1px">6e-5</text><text x="0" y="303.31740013859246" dx="0em" dy="0.3em" style="text-anchor: end; visibility: hidden; font-family: &quot;Helvetica Neue&quot;, sans-serif; font-size: 12px; font-weight: 200;" fill="rgb(50, 49, 63)" stroke="none" stroke-width="1px">7e-5</text><text x="0" y="300.2130248026608" dx="0em" dy="0.3em" style="text-anchor: end; visibility: hidden; font-family: &quot;Helvetica Neue&quot;, sans-serif; font-size: 12px; font-weight: 200;" fill="rgb(50, 49, 63)" stroke="none" stroke-width="1px">8e-5</text><text x="0" y="297.4747716945622" dx="0em" dy="0.3em" style="text-anchor: end; visibility: inherit; font-family: &quot;Helvetica Neue&quot;, sans-serif; font-size: 12px; font-weight: 200;" fill="rgb(50, 49, 63)" stroke="none" stroke-width="1px">9e-5</text><text x="0" y="295.0253208219205" dx="0em" dy="0.3em" style="text-anchor: end; visibility: hidden; font-family: &quot;Helvetica Neue&quot;, sans-serif; font-size: 12px; font-weight: 200;" fill="rgb(50, 49, 63)" stroke="none" stroke-width="1px">1e-4</text><text x="0" y="278.91084040493365" dx="0em" dy="0.3em" style="text-anchor: end; visibility: hidden; font-family: &quot;Helvetica Neue&quot;, sans-serif; font-size: 12px; font-weight: 200;" fill="rgb(50, 49, 63)" stroke="none" stroke-width="1px">2e-4</text><text x="0" y="269.48447364239087" dx="0em" dy="0.3em" style="text-anchor: end; visibility: hidden; font-family: &quot;Helvetica Neue&quot;, sans-serif; font-size: 12px; font-weight: 200;" fill="rgb(50, 49, 63)" stroke="none" stroke-width="1px">3e-4</text><text x="0" y="262.79635998794674" dx="0em" dy="0.3em" style="text-anchor: end; visibility: hidden; font-family: &quot;Helvetica Neue&quot;, sans-serif; font-size: 12px; font-weight: 200;" fill="rgb(50, 49, 63)" stroke="none" stroke-width="1px">4e-4</text><text x="0" y="257.60865600720643" dx="0em" dy="0.3em" style="text-anchor: end; visibility: hidden; font-family: &quot;Helvetica Neue&quot;, sans-serif; font-size: 12px; font-weight: 200;" fill="rgb(50, 49, 63)" stroke="none" stroke-width="1px">5e-4</text><text x="0" y="253.36999322540402" dx="0em" dy="0.3em" style="text-anchor: end; visibility: hidden; font-family: &quot;Helvetica Neue&quot;, sans-serif; font-size: 12px; font-weight: 200;" fill="rgb(50, 49, 63)" stroke="none" stroke-width="1px">6e-4</text><text x="0" y="249.78625490689154" dx="0em" dy="0.3em" style="text-anchor: end; visibility: inherit; font-family: &quot;Helvetica Neue&quot;, sans-serif; font-size: 12px; font-weight: 200;" fill="rgb(50, 49, 63)" stroke="none" stroke-width="1px">7e-4</text><text x="0" y="246.68187957095986" dx="0em" dy="0.3em" style="text-anchor: end; visibility: hidden; font-family: &quot;Helvetica Neue&quot;, sans-serif; font-size: 12px; font-weight: 200;" fill="rgb(50, 49, 63)" stroke="none" stroke-width="1px">8e-4</text><text x="0" y="243.94362646286126" dx="0em" dy="0.3em" style="text-anchor: end; visibility: hidden; font-family: &quot;Helvetica Neue&quot;, sans-serif; font-size: 12px; font-weight: 200;" fill="rgb(50, 49, 63)" stroke="none" stroke-width="1px">9e-4</text><text x="0" y="241.49417559021958" dx="0em" dy="0.3em" style="text-anchor: end; visibility: hidden; font-family: &quot;Helvetica Neue&quot;, sans-serif; font-size: 12px; font-weight: 200;" fill="rgb(50, 49, 63)" stroke="none" stroke-width="1px">1e-3</text><text x="0" y="225.37969517323268" dx="0em" dy="0.3em" style="text-anchor: end; visibility: hidden; font-family: &quot;Helvetica Neue&quot;, sans-serif; font-size: 12px; font-weight: 200;" fill="rgb(50, 49, 63)" stroke="none" stroke-width="1px">2e-3</text><text x="0" y="215.95332841068995" dx="0em" dy="0.3em" style="text-anchor: end; visibility: hidden; font-family: &quot;Helvetica Neue&quot;, sans-serif; font-size: 12px; font-weight: 200;" fill="rgb(50, 49, 63)" stroke="none" stroke-width="1px">3e-3</text><text x="0" y="209.2652147562458" dx="0em" dy="0.3em" style="text-anchor: end; visibility: hidden; font-family: &quot;Helvetica Neue&quot;, sans-serif; font-size: 12px; font-weight: 200;" fill="rgb(50, 49, 63)" stroke="none" stroke-width="1px">4e-3</text><text x="0" y="204.07751077550552" dx="0em" dy="0.3em" style="text-anchor: end; visibility: inherit; font-family: &quot;Helvetica Neue&quot;, sans-serif; font-size: 12px; font-weight: 200;" fill="rgb(50, 49, 63)" stroke="none" stroke-width="1px">5e-3</text><text x="0" y="199.83884799370304" dx="0em" dy="0.3em" style="text-anchor: end; visibility: hidden; font-family: &quot;Helvetica Neue&quot;, sans-serif; font-size: 12px; font-weight: 200;" fill="rgb(50, 49, 63)" stroke="none" stroke-width="1px">6e-3</text><text x="0" y="196.25510967519057" dx="0em" dy="0.3em" style="text-anchor: end; visibility: hidden; font-family: &quot;Helvetica Neue&quot;, sans-serif; font-size: 12px; font-weight: 200;" fill="rgb(50, 49, 63)" stroke="none" stroke-width="1px">7e-3</text><text x="0" y="193.15073433925892" dx="0em" dy="0.3em" style="text-anchor: end; visibility: hidden; font-family: &quot;Helvetica Neue&quot;, sans-serif; font-size: 12px; font-weight: 200;" fill="rgb(50, 49, 63)" stroke="none" stroke-width="1px">8e-3</text><text x="0" y="190.4124812311603" dx="0em" dy="0.3em" style="text-anchor: end; visibility: hidden; font-family: &quot;Helvetica Neue&quot;, sans-serif; font-size: 12px; font-weight: 200;" fill="rgb(50, 49, 63)" stroke="none" stroke-width="1px">9e-3</text><text x="0" y="187.9630303585186" dx="0em" dy="0.3em" style="text-anchor: end; visibility: hidden; font-family: &quot;Helvetica Neue&quot;, sans-serif; font-size: 12px; font-weight: 200;" fill="rgb(50, 49, 63)" stroke="none" stroke-width="1px">0.01</text><text x="0" y="171.84854994153173" dx="0em" dy="0.3em" style="text-anchor: end; visibility: hidden; font-family: &quot;Helvetica Neue&quot;, sans-serif; font-size: 12px; font-weight: 200;" fill="rgb(50, 49, 63)" stroke="none" stroke-width="1px">0.02</text><text x="0" y="162.422183178989" dx="0em" dy="0.3em" style="text-anchor: end; visibility: inherit; font-family: &quot;Helvetica Neue&quot;, sans-serif; font-size: 12px; font-weight: 200;" fill="rgb(50, 49, 63)" stroke="none" stroke-width="1px">0.03</text><text x="0" y="155.73406952454485" dx="0em" dy="0.3em" style="text-anchor: end; visibility: hidden; font-family: &quot;Helvetica Neue&quot;, sans-serif; font-size: 12px; font-weight: 200;" fill="rgb(50, 49, 63)" stroke="none" stroke-width="1px">0.04</text><text x="0" y="150.54636554380454" dx="0em" dy="0.3em" style="text-anchor: end; visibility: hidden; font-family: &quot;Helvetica Neue&quot;, sans-serif; font-size: 12px; font-weight: 200;" fill="rgb(50, 49, 63)" stroke="none" stroke-width="1px">0.05</text><text x="0" y="146.3077027620021" dx="0em" dy="0.3em" style="text-anchor: end; visibility: hidden; font-family: &quot;Helvetica Neue&quot;, sans-serif; font-size: 12px; font-weight: 200;" fill="rgb(50, 49, 63)" stroke="none" stroke-width="1px">0.06</text><text x="0" y="142.72396444348962" dx="0em" dy="0.3em" style="text-anchor: end; visibility: hidden; font-family: &quot;Helvetica Neue&quot;, sans-serif; font-size: 12px; font-weight: 200;" fill="rgb(50, 49, 63)" stroke="none" stroke-width="1px">0.07</text><text x="0" y="139.61958910755797" dx="0em" dy="0.3em" style="text-anchor: end; visibility: hidden; font-family: &quot;Helvetica Neue&quot;, sans-serif; font-size: 12px; font-weight: 200;" fill="rgb(50, 49, 63)" stroke="none" stroke-width="1px">0.08</text><text x="0" y="136.88133599945934" dx="0em" dy="0.3em" style="text-anchor: end; visibility: hidden; font-family: &quot;Helvetica Neue&quot;, sans-serif; font-size: 12px; font-weight: 200;" fill="rgb(50, 49, 63)" stroke="none" stroke-width="1px">0.09</text><text x="0" y="134.4318851268177" dx="0em" dy="0.3em" style="text-anchor: end; visibility: inherit; font-family: &quot;Helvetica Neue&quot;, sans-serif; font-size: 12px; font-weight: 200;" fill="rgb(50, 49, 63)" stroke="none" stroke-width="1px">0.1</text><text x="0" y="118.31740470983078" dx="0em" dy="0.3em" style="text-anchor: end; visibility: hidden; font-family: &quot;Helvetica Neue&quot;, sans-serif; font-size: 12px; font-weight: 200;" fill="rgb(50, 49, 63)" stroke="none" stroke-width="1px">0.2</text><text x="0" y="108.891037947288" dx="0em" dy="0.3em" style="text-anchor: end; visibility: hidden; font-family: &quot;Helvetica Neue&quot;, sans-serif; font-size: 12px; font-weight: 200;" fill="rgb(50, 49, 63)" stroke="none" stroke-width="1px">0.3</text><text x="0" y="102.20292429284393" dx="0em" dy="0.3em" style="text-anchor: end; visibility: hidden; font-family: &quot;Helvetica Neue&quot;, sans-serif; font-size: 12px; font-weight: 200;" fill="rgb(50, 49, 63)" stroke="none" stroke-width="1px">0.4</text><text x="0" y="97.01522031210357" dx="0em" dy="0.3em" style="text-anchor: end; visibility: hidden; font-family: &quot;Helvetica Neue&quot;, sans-serif; font-size: 12px; font-weight: 200;" fill="rgb(50, 49, 63)" stroke="none" stroke-width="1px">0.5</text><text x="0" y="92.77655753030115" dx="0em" dy="0.3em" style="text-anchor: end; visibility: hidden; font-family: &quot;Helvetica Neue&quot;, sans-serif; font-size: 12px; font-weight: 200;" fill="rgb(50, 49, 63)" stroke="none" stroke-width="1px">0.6</text><text x="0" y="89.19281921178867" dx="0em" dy="0.3em" style="text-anchor: end; visibility: hidden; font-family: &quot;Helvetica Neue&quot;, sans-serif; font-size: 12px; font-weight: 200;" fill="rgb(50, 49, 63)" stroke="none" stroke-width="1px">0.7</text><text x="0" y="86.08844387585702" dx="0em" dy="0.3em" style="text-anchor: end; visibility: inherit; font-family: &quot;Helvetica Neue&quot;, sans-serif; font-size: 12px; font-weight: 200;" fill="rgb(50, 49, 63)" stroke="none" stroke-width="1px">0.8</text><text x="0" y="83.35019076775842" dx="0em" dy="0.3em" style="text-anchor: end; visibility: hidden; font-family: &quot;Helvetica Neue&quot;, sans-serif; font-size: 12px; font-weight: 200;" fill="rgb(50, 49, 63)" stroke="none" stroke-width="1px">0.9</text><text x="0" y="80.90073989511671" dx="0em" dy="0.3em" style="text-anchor: end; visibility: hidden; font-family: &quot;Helvetica Neue&quot;, sans-serif; font-size: 12px; font-weight: 200;" fill="rgb(50, 49, 63)" stroke="none" stroke-width="1px">1</text><text x="0" y="64.78625947812981" dx="0em" dy="0.3em" style="text-anchor: end; visibility: hidden; font-family: &quot;Helvetica Neue&quot;, sans-serif; font-size: 12px; font-weight: 200;" fill="rgb(50, 49, 63)" stroke="none" stroke-width="1px">2</text><text x="0" y="55.35989271558708" dx="0em" dy="0.3em" style="text-anchor: end; visibility: hidden; font-family: &quot;Helvetica Neue&quot;, sans-serif; font-size: 12px; font-weight: 200;" fill="rgb(50, 49, 63)" stroke="none" stroke-width="1px">3</text><text x="0" y="48.6717790611429" dx="0em" dy="0.3em" style="text-anchor: end; visibility: hidden; font-family: &quot;Helvetica Neue&quot;, sans-serif; font-size: 12px; font-weight: 200;" fill="rgb(50, 49, 63)" stroke="none" stroke-width="1px">4</text><text x="0" y="43.484075080402704" dx="0em" dy="0.3em" style="text-anchor: end; visibility: hidden; font-family: &quot;Helvetica Neue&quot;, sans-serif; font-size: 12px; font-weight: 200;" fill="rgb(50, 49, 63)" stroke="none" stroke-width="1px">5</text><text x="0" y="39.24541229860017" dx="0em" dy="0.3em" style="text-anchor: end; visibility: inherit; font-family: &quot;Helvetica Neue&quot;, sans-serif; font-size: 12px; font-weight: 200;" fill="rgb(50, 49, 63)" stroke="none" stroke-width="1px">6</text><text x="0" y="35.6616739800877" dx="0em" dy="0.3em" style="text-anchor: end; visibility: hidden; font-family: &quot;Helvetica Neue&quot;, sans-serif; font-size: 12px; font-weight: 200;" fill="rgb(50, 49, 63)" stroke="none" stroke-width="1px">7</text><text x="0" y="32.55729864415605" dx="0em" dy="0.3em" style="text-anchor: end; visibility: hidden; font-family: &quot;Helvetica Neue&quot;, sans-serif; font-size: 12px; font-weight: 200;" fill="rgb(50, 49, 63)" stroke="none" stroke-width="1px">8</text><text x="0" y="29.819045536057445" dx="0em" dy="0.3em" style="text-anchor: end; visibility: hidden; font-family: &quot;Helvetica Neue&quot;, sans-serif; font-size: 12px; font-weight: 200;" fill="rgb(50, 49, 63)" stroke="none" stroke-width="1px">9</text><text x="0" y="27.36959466341574" dx="0em" dy="0.3em" style="text-anchor: end; visibility: hidden; font-family: &quot;Helvetica Neue&quot;, sans-serif; font-size: 12px; font-weight: 200;" fill="rgb(50, 49, 63)" stroke="none" stroke-width="1px">10</text><text x="0" y="11.255114246428889" dx="0em" dy="0.3em" style="text-anchor: end; visibility: hidden; font-family: &quot;Helvetica Neue&quot;, sans-serif; font-size: 12px; font-weight: 200;" fill="rgb(50, 49, 63)" stroke="none" stroke-width="1px">20</text><text x="0" y="1.8287474838861044" dx="0em" dy="0.3em" style="text-anchor: end; visibility: hidden; font-family: &quot;Helvetica Neue&quot;, sans-serif; font-size: 12px; font-weight: 200;" fill="rgb(50, 49, 63)" stroke="none" stroke-width="1px">30</text></g><line x1="48.8125" y1="0" x2="48.8125" y2="377" fill="rgb(0, 0, 0)" stroke="rgb(204, 204, 204)" stroke-width="1px"></line></g></g><g transform="translate(48, 0)" clip-path="url(#clip_0)"><clipPath id="clip_0"><rect width="984" height="377"></rect></clipPath><g><g><g><line x1="0" y1="0" x2="0" y2="377" fill="rgb(0, 0, 0)" stroke="rgb(60, 60, 60)" stroke-width="1px" opacity="0.25"></line><line x1="109.35416666666666" y1="0" x2="109.35416666666666" y2="377" fill="rgb(0, 0, 0)" stroke="rgb(60, 60, 60)" stroke-width="1px" opacity="0.25"></line><line x1="218.70833333333331" y1="0" x2="218.70833333333331" y2="377" fill="rgb(0, 0, 0)" stroke="rgb(60, 60, 60)" stroke-width="1px" opacity="0.25"></line><line x1="328.0625" y1="0" x2="328.0625" y2="377" fill="rgb(0, 0, 0)" stroke="rgb(60, 60, 60)" stroke-width="1px" opacity="0.25"></line><line x1="437.41666666666663" y1="0" x2="437.41666666666663" y2="377" fill="rgb(0, 0, 0)" stroke="rgb(60, 60, 60)" stroke-width="1px" opacity="0.25"></line><line x1="546.7708333333334" y1="0" x2="546.7708333333334" y2="377" fill="rgb(0, 0, 0)" stroke="rgb(60, 60, 60)" stroke-width="1px" opacity="0.25"></line><line x1="656.125" y1="0" x2="656.125" y2="377" fill="rgb(0, 0, 0)" stroke="rgb(60, 60, 60)" stroke-width="1px" opacity="0.25"></line><line x1="765.4791666666666" y1="0" x2="765.4791666666666" y2="377" fill="rgb(0, 0, 0)" stroke="rgb(60, 60, 60)" stroke-width="1px" opacity="0.25"></line><line x1="874.8333333333333" y1="0" x2="874.8333333333333" y2="377" fill="rgb(0, 0, 0)" stroke="rgb(60, 60, 60)" stroke-width="1px" opacity="0.25"></line><line x1="984.1875" y1="0" x2="984.1875" y2="377" fill="rgb(0, 0, 0)" stroke="rgb(60, 60, 60)" stroke-width="1px" opacity="0.25"></line></g><g><line x1="0" y1="376.54676410579276" x2="984.1875" y2="376.54676410579276" fill="rgb(0, 0, 0)" stroke="rgb(60, 60, 60)" stroke-width="1px" opacity="0.25"></line><line x1="0" y1="369.85865045134864" x2="984.1875" y2="369.85865045134864" fill="rgb(0, 0, 0)" stroke="rgb(60, 60, 60)" stroke-width="1px" opacity="0.25"></line><line x1="0" y1="364.6709464706083" x2="984.1875" y2="364.6709464706083" fill="rgb(0, 0, 0)" stroke="rgb(60, 60, 60)" stroke-width="1px" opacity="0.25"></line><line x1="0" y1="360.4322836888059" x2="984.1875" y2="360.4322836888059" fill="rgb(0, 0, 0)" stroke="rgb(60, 60, 60)" stroke-width="1px" opacity="0.25"></line><line x1="0" y1="356.84854537029344" x2="984.1875" y2="356.84854537029344" fill="rgb(0, 0, 0)" stroke="rgb(60, 60, 60)" stroke-width="1px" opacity="0.25"></line><line x1="0" y1="353.7441700343618" x2="984.1875" y2="353.7441700343618" fill="rgb(0, 0, 0)" stroke="rgb(60, 60, 60)" stroke-width="1px" opacity="0.25"></line><line x1="0" y1="351.0059169262631" x2="984.1875" y2="351.0059169262631" fill="rgb(0, 0, 0)" stroke="rgb(60, 60, 60)" stroke-width="1px" opacity="0.25"></line><line x1="0" y1="348.5564660536215" x2="984.1875" y2="348.5564660536215" fill="rgb(0, 0, 0)" stroke="rgb(60, 60, 60)" stroke-width="1px" opacity="0.25"></line><line x1="0" y1="332.44198563663457" x2="984.1875" y2="332.44198563663457" fill="rgb(0, 0, 0)" stroke="rgb(60, 60, 60)" stroke-width="1px" opacity="0.25"></line><line x1="0" y1="323.01561887409184" x2="984.1875" y2="323.01561887409184" fill="rgb(0, 0, 0)" stroke="rgb(60, 60, 60)" stroke-width="1px" opacity="0.25"></line><line x1="0" y1="316.3275052196477" x2="984.1875" y2="316.3275052196477" fill="rgb(0, 0, 0)" stroke="rgb(60, 60, 60)" stroke-width="1px" opacity="0.25"></line><line x1="0" y1="311.1398012389074" x2="984.1875" y2="311.1398012389074" fill="rgb(0, 0, 0)" stroke="rgb(60, 60, 60)" stroke-width="1px" opacity="0.25"></line><line x1="0" y1="306.90113845710493" x2="984.1875" y2="306.90113845710493" fill="rgb(0, 0, 0)" stroke="rgb(60, 60, 60)" stroke-width="1px" opacity="0.25"></line><line x1="0" y1="303.31740013859246" x2="984.1875" y2="303.31740013859246" fill="rgb(0, 0, 0)" stroke="rgb(60, 60, 60)" stroke-width="1px" opacity="0.25"></line><line x1="0" y1="300.2130248026608" x2="984.1875" y2="300.2130248026608" fill="rgb(0, 0, 0)" stroke="rgb(60, 60, 60)" stroke-width="1px" opacity="0.25"></line><line x1="0" y1="297.4747716945622" x2="984.1875" y2="297.4747716945622" fill="rgb(0, 0, 0)" stroke="rgb(60, 60, 60)" stroke-width="1px" opacity="0.25"></line><line x1="0" y1="295.0253208219205" x2="984.1875" y2="295.0253208219205" fill="rgb(0, 0, 0)" stroke="rgb(60, 60, 60)" stroke-width="1px" opacity="0.25"></line><line x1="0" y1="278.91084040493365" x2="984.1875" y2="278.91084040493365" fill="rgb(0, 0, 0)" stroke="rgb(60, 60, 60)" stroke-width="1px" opacity="0.25"></line><line x1="0" y1="269.48447364239087" x2="984.1875" y2="269.48447364239087" fill="rgb(0, 0, 0)" stroke="rgb(60, 60, 60)" stroke-width="1px" opacity="0.25"></line><line x1="0" y1="262.79635998794674" x2="984.1875" y2="262.79635998794674" fill="rgb(0, 0, 0)" stroke="rgb(60, 60, 60)" stroke-width="1px" opacity="0.25"></line><line x1="0" y1="257.60865600720643" x2="984.1875" y2="257.60865600720643" fill="rgb(0, 0, 0)" stroke="rgb(60, 60, 60)" stroke-width="1px" opacity="0.25"></line><line x1="0" y1="253.36999322540402" x2="984.1875" y2="253.36999322540402" fill="rgb(0, 0, 0)" stroke="rgb(60, 60, 60)" stroke-width="1px" opacity="0.25"></line><line x1="0" y1="249.78625490689154" x2="984.1875" y2="249.78625490689154" fill="rgb(0, 0, 0)" stroke="rgb(60, 60, 60)" stroke-width="1px" opacity="0.25"></line><line x1="0" y1="246.68187957095986" x2="984.1875" y2="246.68187957095986" fill="rgb(0, 0, 0)" stroke="rgb(60, 60, 60)" stroke-width="1px" opacity="0.25"></line><line x1="0" y1="243.94362646286126" x2="984.1875" y2="243.94362646286126" fill="rgb(0, 0, 0)" stroke="rgb(60, 60, 60)" stroke-width="1px" opacity="0.25"></line><line x1="0" y1="241.49417559021958" x2="984.1875" y2="241.49417559021958" fill="rgb(0, 0, 0)" stroke="rgb(60, 60, 60)" stroke-width="1px" opacity="0.25"></line><line x1="0" y1="225.37969517323268" x2="984.1875" y2="225.37969517323268" fill="rgb(0, 0, 0)" stroke="rgb(60, 60, 60)" stroke-width="1px" opacity="0.25"></line><line x1="0" y1="215.95332841068995" x2="984.1875" y2="215.95332841068995" fill="rgb(0, 0, 0)" stroke="rgb(60, 60, 60)" stroke-width="1px" opacity="0.25"></line><line x1="0" y1="209.2652147562458" x2="984.1875" y2="209.2652147562458" fill="rgb(0, 0, 0)" stroke="rgb(60, 60, 60)" stroke-width="1px" opacity="0.25"></line><line x1="0" y1="204.07751077550552" x2="984.1875" y2="204.07751077550552" fill="rgb(0, 0, 0)" stroke="rgb(60, 60, 60)" stroke-width="1px" opacity="0.25"></line><line x1="0" y1="199.83884799370304" x2="984.1875" y2="199.83884799370304" fill="rgb(0, 0, 0)" stroke="rgb(60, 60, 60)" stroke-width="1px" opacity="0.25"></line><line x1="0" y1="196.25510967519057" x2="984.1875" y2="196.25510967519057" fill="rgb(0, 0, 0)" stroke="rgb(60, 60, 60)" stroke-width="1px" opacity="0.25"></line><line x1="0" y1="193.15073433925892" x2="984.1875" y2="193.15073433925892" fill="rgb(0, 0, 0)" stroke="rgb(60, 60, 60)" stroke-width="1px" opacity="0.25"></line><line x1="0" y1="190.4124812311603" x2="984.1875" y2="190.4124812311603" fill="rgb(0, 0, 0)" stroke="rgb(60, 60, 60)" stroke-width="1px" opacity="0.25"></line><line x1="0" y1="187.9630303585186" x2="984.1875" y2="187.9630303585186" fill="rgb(0, 0, 0)" stroke="rgb(60, 60, 60)" stroke-width="1px" opacity="0.25"></line><line x1="0" y1="171.84854994153173" x2="984.1875" y2="171.84854994153173" fill="rgb(0, 0, 0)" stroke="rgb(60, 60, 60)" stroke-width="1px" opacity="0.25"></line><line x1="0" y1="162.422183178989" x2="984.1875" y2="162.422183178989" fill="rgb(0, 0, 0)" stroke="rgb(60, 60, 60)" stroke-width="1px" opacity="0.25"></line><line x1="0" y1="155.73406952454485" x2="984.1875" y2="155.73406952454485" fill="rgb(0, 0, 0)" stroke="rgb(60, 60, 60)" stroke-width="1px" opacity="0.25"></line><line x1="0" y1="150.54636554380454" x2="984.1875" y2="150.54636554380454" fill="rgb(0, 0, 0)" stroke="rgb(60, 60, 60)" stroke-width="1px" opacity="0.25"></line><line x1="0" y1="146.3077027620021" x2="984.1875" y2="146.3077027620021" fill="rgb(0, 0, 0)" stroke="rgb(60, 60, 60)" stroke-width="1px" opacity="0.25"></line><line x1="0" y1="142.72396444348962" x2="984.1875" y2="142.72396444348962" fill="rgb(0, 0, 0)" stroke="rgb(60, 60, 60)" stroke-width="1px" opacity="0.25"></line><line x1="0" y1="139.61958910755797" x2="984.1875" y2="139.61958910755797" fill="rgb(0, 0, 0)" stroke="rgb(60, 60, 60)" stroke-width="1px" opacity="0.25"></line><line x1="0" y1="136.88133599945934" x2="984.1875" y2="136.88133599945934" fill="rgb(0, 0, 0)" stroke="rgb(60, 60, 60)" stroke-width="1px" opacity="0.25"></line><line x1="0" y1="134.4318851268177" x2="984.1875" y2="134.4318851268177" fill="rgb(0, 0, 0)" stroke="rgb(60, 60, 60)" stroke-width="1px" opacity="0.25"></line><line x1="0" y1="118.31740470983078" x2="984.1875" y2="118.31740470983078" fill="rgb(0, 0, 0)" stroke="rgb(60, 60, 60)" stroke-width="1px" opacity="0.25"></line><line x1="0" y1="108.891037947288" x2="984.1875" y2="108.891037947288" fill="rgb(0, 0, 0)" stroke="rgb(60, 60, 60)" stroke-width="1px" opacity="0.25"></line><line x1="0" y1="102.20292429284393" x2="984.1875" y2="102.20292429284393" fill="rgb(0, 0, 0)" stroke="rgb(60, 60, 60)" stroke-width="1px" opacity="0.25"></line><line x1="0" y1="97.01522031210357" x2="984.1875" y2="97.01522031210357" fill="rgb(0, 0, 0)" stroke="rgb(60, 60, 60)" stroke-width="1px" opacity="0.25"></line><line x1="0" y1="92.77655753030115" x2="984.1875" y2="92.77655753030115" fill="rgb(0, 0, 0)" stroke="rgb(60, 60, 60)" stroke-width="1px" opacity="0.25"></line><line x1="0" y1="89.19281921178867" x2="984.1875" y2="89.19281921178867" fill="rgb(0, 0, 0)" stroke="rgb(60, 60, 60)" stroke-width="1px" opacity="0.25"></line><line x1="0" y1="86.08844387585702" x2="984.1875" y2="86.08844387585702" fill="rgb(0, 0, 0)" stroke="rgb(60, 60, 60)" stroke-width="1px" opacity="0.25"></line><line x1="0" y1="83.35019076775842" x2="984.1875" y2="83.35019076775842" fill="rgb(0, 0, 0)" stroke="rgb(60, 60, 60)" stroke-width="1px" opacity="0.25"></line><line x1="0" y1="80.90073989511671" x2="984.1875" y2="80.90073989511671" fill="rgb(0, 0, 0)" stroke="rgb(60, 60, 60)" stroke-width="1px" opacity="0.25"></line><line x1="0" y1="64.78625947812981" x2="984.1875" y2="64.78625947812981" fill="rgb(0, 0, 0)" stroke="rgb(60, 60, 60)" stroke-width="1px" opacity="0.25"></line><line x1="0" y1="55.35989271558708" x2="984.1875" y2="55.35989271558708" fill="rgb(0, 0, 0)" stroke="rgb(60, 60, 60)" stroke-width="1px" opacity="0.25"></line><line x1="0" y1="48.6717790611429" x2="984.1875" y2="48.6717790611429" fill="rgb(0, 0, 0)" stroke="rgb(60, 60, 60)" stroke-width="1px" opacity="0.25"></line><line x1="0" y1="43.484075080402704" x2="984.1875" y2="43.484075080402704" fill="rgb(0, 0, 0)" stroke="rgb(60, 60, 60)" stroke-width="1px" opacity="0.25"></line><line x1="0" y1="39.24541229860017" x2="984.1875" y2="39.24541229860017" fill="rgb(0, 0, 0)" stroke="rgb(60, 60, 60)" stroke-width="1px" opacity="0.25"></line><line x1="0" y1="35.6616739800877" x2="984.1875" y2="35.6616739800877" fill="rgb(0, 0, 0)" stroke="rgb(60, 60, 60)" stroke-width="1px" opacity="0.25"></line><line x1="0" y1="32.55729864415605" x2="984.1875" y2="32.55729864415605" fill="rgb(0, 0, 0)" stroke="rgb(60, 60, 60)" stroke-width="1px" opacity="0.25"></line><line x1="0" y1="29.819045536057445" x2="984.1875" y2="29.819045536057445" fill="rgb(0, 0, 0)" stroke="rgb(60, 60, 60)" stroke-width="1px" opacity="0.25"></line><line x1="0" y1="27.36959466341574" x2="984.1875" y2="27.36959466341574" fill="rgb(0, 0, 0)" stroke="rgb(60, 60, 60)" stroke-width="1px" opacity="0.25"></line><line x1="0" y1="11.255114246428889" x2="984.1875" y2="11.255114246428889" fill="rgb(0, 0, 0)" stroke="rgb(60, 60, 60)" stroke-width="1px" opacity="0.25"></line><line x1="0" y1="1.8287474838861044" x2="984.1875" y2="1.8287474838861044" fill="rgb(0, 0, 0)" stroke="rgb(60, 60, 60)" stroke-width="1px" opacity="0.25"></line></g></g></g><g><g><line x1="109.35416666666666" y1="0" x2="109.35416666666666" y2="377" fill="rgb(0, 0, 0)" stroke="rgb(153, 153, 153)" stroke-width="1.5px"></line></g></g><g><g><g><g><g><path style="fill: none;" stroke="rgb(255, 112, 67)" stroke-width="2px" d="M111.51937916666667,53.438794224159665L113.7064625,53.42603470368158L115.89354583333333,53.53333422224273L118.08062916666667,53.55499661373426L120.2677125,53.54972281960437L122.45479583333334,53.47385384881966L124.64187916666667,53.49078191102001L126.82896249999999,53.54532860846774L129.01604583333335,53.490750423732266L131.20312916666666,53.59258996862161L133.39021250000002,53.88241702276764L135.57729583333332,54.054709782264354L137.76437916666669,53.90794302707485L139.9514625,53.94018217858377L142.13854583333335,53.77749696845831L144.32562916666666,54.039944622334474L146.51271250000002,53.96752480128981L148.69979583333333,53.8303881214602L150.8868791666667,53.852312925692445L153.0739625,53.95624747576386L155.26104583333336,54.00567906681766L157.44812916666666,53.92447448029964L159.63521250000002,53.832751777432975L161.82229583333333,54.080550699996536L164.0093791666667,54.29037891032266L166.1964625,54.49815604282162L168.38354583333336,54.88385477469046L170.57062916666666,56.7271526597695L172.75771250000003,56.1522411364636L174.94479583333333,55.57429219877531L177.13187916666666,57.80742988204565L179.3189625,58.98441719555899L181.50604583333333,59.96759057631499L183.69312916666667,63.561022779424775L186.58007916666668,65.25504050647595L188.7671625,65.24652324574578L190.95424583333335,66.32037865817756L193.14132916666668,67.69022725188921L195.3284125,65.35084291448908L197.51549583333335,66.89551512883054L199.70257916666665,65.93257072402793L201.88966250000001,71.17848228111905L204.07674583333332,74.20537245966176L206.26382916666668,74.24860987100016L208.4509125,78.52067510667553L210.63799583333335,76.65824938163837L212.82507916666665,78.26386669455644L215.01216250000002,80.43397952599338L217.19924583333332,78.72856638532306L219.38632916666668,72.47089943688366L221.5734125,74.90132363085655L223.76049583333335,75.91240148617476L225.94757916666666,77.6025721644445L228.13466250000002,78.13646579152157L230.32174583333332,79.81353012241749L232.5088291666667,78.87009604079401L234.6959125,83.39895999620768L236.88299583333335,80.88754009577156L239.07007916666666,86.03440197252507L241.25716250000002,89.43960079192175L243.44424583333333,92.83382195996546L245.6313291666667,98.0593698195521L247.81841250000002,93.21620813763025L250.00549583333333,91.34859733400287L252.19257916666666,91.82494370072095L254.37966250000002,94.60586975503895L256.56674583333336,100.34852110501237L258.75382916666666,106.38226648093848L261.6407791666667,103.59949309662903L263.8278625,110.2756991101482L266.01494583333334,105.33116822695195L268.20202916666665,113.1775418153884L270.3891125,113.34564352801061L272.5761958333333,118.26597182124891L274.7632791666667,111.58356594608057L276.9503625,117.1228369125509L279.13744583333335,119.09558769493214L281.32452916666665,116.67401749090789L283.5116125,123.21841040210265L285.6986958333333,131.0913802597262L287.8857791666667,137.09809511972972L290.07286250000004,144.82622886293538L292.2599458333333,123.86839811264986L294.44702916666665,123.82664727755665L296.6341125,128.87915145710872L298.8211958333334,126.80040590374699L301.0082791666666,130.19406897813414L303.1953625,138.08851321702178L305.38244583333335,126.00490466313545L307.5695291666667,133.43105830951026L309.75661249999996,133.31024183766735L311.9436958333333,136.72638298296863L314.1307791666667,141.98500674179076L316.31786250000005,148.89411995324824L318.5049458333333,148.23667937276727L320.69202916666666,155.51958779527243L322.8791125,156.43233108982312L325.0661958333334,162.79384897898697L327.25327916666663,168.7986956164089L329.4403625,170.88088532148979L331.62744583333335,175.3799784187831L333.8145291666667,183.4173713081152L336.7014791666666,177.2266185431016L338.8885625,165.1211213647929L341.07564583333334,170.64488996481776L343.2627291666667,178.50164338960357L345.4498125,154.0850591966506L347.6368958333333,142.33355560556782L349.8239791666667,149.47832846053205L352.01106250000004,122.78848128075589L354.19814583333334,130.79219895277004L356.38522916666665,137.73976217625417L358.5723125,143.9558242210473L360.7593958333334,144.0442479050673L362.9464791666667,143.93282799557593L365.1335625,143.29592844976568L367.32064583333334,133.19609836877453L369.5077291666667,140.4137453771927L371.6948125,141.4486435191275L373.8818958333333,144.10199457894032L376.0689791666667,150.10398131052176L378.25606250000004,157.3746146672841L380.44314583333335,164.3369825870278L382.63022916666665,172.51806452561408L384.8173125,156.8952326377236L387.0043958333333,163.20827516795393L389.1914791666667,170.66834567203247L391.3785625,178.51807183278308L393.56564583333335,186.55773841388844L395.75272916666665,193.5368510929668L397.9398125,200.81421068608756L400.1268958333333,206.58550184207198L402.3139791666667,214.50039657362777L404.5010625,220.19191519105303L406.68814583333335,228.04050828793552L408.87522916666666,236.13471897587695L411.76217916666667,234.2856812309998L413.9492625,239.69513116272597L416.13634583333334,221.5633815645835L418.32342916666664,227.8873330834358L420.5105125,228.50150306842335L422.6975958333333,146.16406569392817L424.8846791666667,154.26578131561197L427.0717625,162.11798200901185L429.25884583333334,170.11027388770754L431.44592916666664,177.34285265883364L433.6330125,183.05450406881843L435.8200958333333,190.7877092729716L438.0071791666667,196.30773643707937L440.1942625,186.7893661466172L442.38134583333334,112.77315353410461L444.56842916666665,120.69252683532261L446.7555125,128.8675541220067L448.9425958333333,136.9773747461497L451.1296791666667,145.14195983401063L453.3167625,153.26755815227708L455.50384583333334,158.79266730401102L457.69092916666665,166.88154603360394L459.8780125,174.04360685064515L462.0650958333333,182.2259542785161L464.2521791666667,166.1599221891573L466.4392625,164.28592173790713L468.62634583333335,170.82635574417543L470.81342916666665,172.471827975348L473.0005125,180.6412128021223L475.1875958333333,180.3122059837197L477.3746791666667,188.36942618882227L479.5617625,195.39568387713607L481.7488458333333,203.57418783071043L483.93592916666665,210.87278944908684L486.82287916666667,217.98952896122913L489.00996250000003,226.0872170923181L491.19704583333333,234.04047287954475L493.3841291666667,241.2505548406836L495.57121250000006,243.2970194226758L497.7582958333333,250.91544792496785L499.9453791666666,255.12618878447918L502.1324625,260.41947866331986L504.31954583333334,267.66766917296735L506.5066291666667,273.4447645754641L508.6937125,250.55266494522772L510.88079583333337,258.5950188750415L513.0678791666667,258.99142872780334L515.2549624999999,266.55739944382276L517.4420458333333,274.17569660841923L519.6291291666666,274.0638730560035L521.8162125,280.304351831087L524.0032958333334,259.07541789567716L526.1903791666667,266.36781335652154L528.3774625000001,274.14521404868515L530.5645458333333,281.43177561477944L532.7516291666666,289.50071059381395L534.9387125,297.1040760121534L537.1257958333333,296.5782098359348L539.3128791666667,295.9051775267454L541.4999625,269.26033860394523L543.6870458333334,261.05865187074744L545.8741291666668,268.2227372760569L548.0612125,275.63100457240694L550.2482958333333,277.29546613313846L552.4353791666666,280.8625500713704L554.6224625,285.219319347318L556.8095458333333,283.34182722369917L558.9966291666667,291.2846089035758L561.8835791666667,287.7755106940885L564.0706625,269.4945569254551L566.2577458333333,276.39359856074384L568.4448291666666,283.88160514275063L570.6319125,260.45411325347663L572.8189958333334,268.57373473660203L575.0060791666667,273.8033851363165L577.1931625,281.0671115305387L579.3802458333333,281.77137926510466L581.5673291666667,284.0227870653613L583.7544125,291.1045125305987L585.9414958333333,293.55205984895224L588.1285791666667,268.0448258443487L590.3156625,274.4832868684465L592.5027458333334,281.8030867476914L594.6898291666666,290.0288371149934L596.8769125,297.6735614219517L599.0639958333333,304.5919878847742L601.2510791666666,312.18722783668346L603.4381625,296.33715893906816L605.6252458333333,304.1924482241498L607.8123291666667,302.0132135482165L609.9994125000001,309.82945655722773L612.1864958333333,300.2815916651569L614.3735791666667,301.5925745781972L616.5606624999999,305.9197394714349L618.7477458333333,308.2061019846197L620.9348291666666,316.3490404486173L623.1219125,318.4959670788649L625.3089958333334,299.40073611501725L627.4960791666667,307.62648648231925L629.6831625,308.7294572193229L631.8702458333333,314.0104504091604L634.0573291666666,314.5150525848961L636.9442791666667,318.3869491166694L639.1313625,312.9253126451391L641.3184458333333,320.01073973141376L643.5055291666666,294.4408998673412L645.6926125,302.0775997977602L647.8796958333334,307.45743279193914L650.0667791666667,315.12756194714984L652.2538625,313.56033453039817L654.4409458333333,305.9388891580517L656.6280291666667,285.3944001415831L658.8151124999999,291.6247443221257L661.0021958333333,282.6506817575218L663.1892791666667,290.3166897617903L665.3763625,298.4465610936008L667.5634458333334,301.64239698383307L669.7505291666666,309.6812401219142L671.9376125,310.70543366882987L674.1246958333334,318.83899179014986L676.3117791666666,326.1649077083515L678.4988625,312.77785929440114L680.6859458333333,319.91846460227043L682.8730291666667,314.0605960128769L685.0601125,321.14113743463474L687.2471958333333,319.21176585065746L689.4342791666667,312.52245214741663L691.6213625,315.25785187911936L693.8084458333333,322.01421884994875L695.9955291666666,330.2399692172507L698.1826125,337.41946866230273L700.3696958333334,345.64521902960473L702.5567791666666,332.4841938217993L704.7438625,331.64994638912697L706.9309458333333,339.4252637234803L709.1180291666667,346.26345815398844L712.0049791666667,344.5739425628769L714.1920625,344.54336714245994L716.3791458333334,352.5719661503655L718.5662291666667,328.66656537591564L720.7533125,333.8938776913695L722.9403958333332,317.1832582492658L725.1274791666666,325.10584890392175L727.3145625,294.4471184950792L729.5016458333333,301.53086223518494L731.6887291666667,309.57059635294695L733.8758125,315.37561034023554L736.0628958333334,321.3432013363523L738.2499791666667,328.7092000952464L740.4370624999999,286.57954920601424L742.6241458333333,294.36766987537965L744.8112291666666,292.44938312319516L746.9983125,299.30517990767663L749.1853958333334,306.91683591283993L751.3724791666667,310.0211572557653L753.5595625000001,315.30217465357765L755.7466458333333,322.37499691306544L757.9337291666666,330.6007472803674L760.1208124999999,337.9728538232407L762.3078958333333,333.43104367419903L764.4949791666667,337.61084529832993L766.6820625,334.2694428209422L768.8691458333334,310.2986033710471L771.0562291666668,318.0748630036471L773.2433125,323.0508816707908L775.4303958333333,309.6608158670983L777.6174791666666,313.1850303396371L779.8045625,296.6865112269354L781.9916458333333,298.50328482150184L784.1787291666667,305.4530389051563L787.0656791666667,312.45856667659297L789.2527625,320.3873895190266L791.4398458333333,326.79485758612515L793.6269291666666,321.5385301475591L795.8140125,328.19891647520456L798.0010958333334,335.6534383582948L800.1881791666667,337.95012121879245L802.3752625000001,342.59052888197874L804.5623458333333,348.56263377656956L806.7494291666666,350.80388832338843L808.9365124999999,337.37266940477036L811.1235958333333,326.3488138095087L813.3106791666667,296.3623247987029L815.4977625,298.7168559762511L817.6848458333334,286.54560957774964L819.8719291666667,294.70609900530496L822.0590125,300.74078106941965L824.2460958333332,306.95044135785474L826.4331791666666,315.0195253820352L828.6202625,320.5199685352114L830.8073458333333,307.1080921865763L832.9944291666667,307.31532808918166L835.1815125,315.54107845648366L837.3685958333334,317.8273451960867L839.5556791666667,320.1551708041079L841.7427624999999,327.69755246932186L843.9298458333333,334.799745461731L846.1169291666666,342.7665352246537L848.3040125,329.69904353199206L850.4910958333334,311.21873239878994L852.6781791666667,313.1174623553824L854.8652625000001,314.78019148578187L857.0523458333333,323.00594185308387L859.2394291666666,329.3499780767487" fill="none"></path></g></g></g></g><g opacity="0.2"><g><g><g><path stroke="rgb(255, 112, 67)" stroke-width="2px" d="M111.51937916666667,53.438794224159665L113.7064625,53.417081702012695L115.89354583333333,53.6621888542071L118.08062916666667,53.588412553934745L120.2677125,53.54031940601442L122.45479583333334,53.32630965776315L124.64187916666667,53.52592620774607L126.82896249999999,53.663466705268036L129.01604583333335,53.37021816325023L131.20312916666666,53.824215539441866L133.39021250000002,54.55922599138944L135.57729583333332,54.45724108271895L137.76437916666669,53.570687580987624L139.9514625,54.01553861276017L142.13854583333335,53.401351520263745L144.32562916666666,54.66699666392918L146.51271250000002,53.79839970207763L148.69979583333333,53.511272305066996L150.8868791666667,53.903954386232215L153.0739625,54.20264047439582L155.26104583333336,54.122443440773225L157.44812916666666,53.73440647882694L159.63521250000002,53.61818880540437L161.82229583333333,54.674772151284856L164.0093791666667,54.792184591486944L166.1964625,54.99501228628634L168.38354583333336,55.81847051790129L170.57062916666666,61.75177182801764L172.75771250000003,54.851661642060094L174.94479583333333,54.26709483654787L177.13187916666666,64.11120696582913L179.3189625,62.0179689062922L181.50604583333333,62.46250871435387L183.69312916666667,75.19631908755173L186.58007916666668,69.81372109353572L188.7671625,65.22647150335769L190.95424583333335,69.06523688267515L193.14132916666668,71.27715588878084L195.3284125,60.623163188250544L197.51549583333335,70.99978515943559L199.70257916666665,63.810373711180375L201.88966250000001,92.26705164297744L204.07674583333332,83.43165638972863L206.26382916666668,74.35078338457834L208.4509125,93.50996130494008L210.63799583333335,72.78364420111234L212.82507916666665,82.55216429626091L215.01216250000002,86.52485952695127L217.19924583333332,75.14575295014623L219.38632916666668,62.19376310344478L221.5734125,81.88905188109567L223.76049583333335,78.48386593907219L225.94757916666666,82.14942757504826L228.13466250000002,79.44485015836943L230.32174583333332,84.32005674346465L232.5088291666667,76.78819816362898L234.6959125,99.82465789782884L236.88299583333335,75.86381632734839L239.07007916666666,106.41123223493247L241.25716250000002,100.23995469254788L243.44424583333333,103.58659272441923L245.6313291666667,118.99958574006195L247.81841250000002,84.69044273727866L250.00549583333333,87.46445131507926L252.19257916666666,92.9872255245408L254.37966250000002,102.87577481756387L256.56674583333336,125.43319913164174L258.75382916666666,134.22268144794782L261.6407791666667,98.12067165689638L263.8278625,145.8629908078213L266.01494583333334,96.6717155692238L268.20202916666665,180.89845863145362L270.3891125,113.74651296453612L272.5761958333333,137.10295385907062L274.7632791666667,100.82460185426066L276.9503625,140.47711932140697L279.13744583333335,124.53519035348589L281.32452916666665,111.80416284472847L283.5116125,156.97284289420685L285.6986958333333,200.48880661876444L287.8857791666667,164.66688077326398L290.07286250000004,206.29881883438034L292.2599458333333,103.52143729181824L294.44702916666665,123.72858998602865L296.6341125,148.60032064075799L298.8211958333334,122.53283804766656L301.0082791666666,140.94442386691128L303.1953625,208.93529679864795L305.38244583333335,110.4211662804766L307.5695291666667,184.02779845694715L309.75661249999996,133.02809124667183L311.9436958333333,147.5742864683924L314.1307791666667,163.16676361771502L316.31786250000005,188.15283546931727L318.5049458333333,146.75769487675808L320.69202916666666,202.35639208375375L322.8791125,158.73567719779717L325.0661958333334,194.23821960830554L327.25327916666663,196.34883585031312L329.4403625,176.67868727204896L331.62744583333335,191.63369833520136L333.8145291666667,267.3211452051662L336.7014791666666,167.02712585165492L338.8885625,149.52171032251647L341.07564583333334,193.8730049385893L343.2627291666667,246.8623262294076L345.4498125,132.49119346399917L347.6368958333333,126.99075483227392L349.8239791666667,193.2051397772636L352.01106250000004,100.50007281149345L354.19814583333334,210.88883842755303L356.38522916666665,177.66846628812388L358.5723125,173.72526456534123L360.7593958333334,144.25388699037094L362.9464791666667,143.67244714382153L365.1335625,141.86114554319192L367.32064583333334,119.14582388296839L369.5077291666667,185.72700699413804L371.6948125,144.085696445843L373.8818958333333,151.89473499830368L376.0689791666667,177.6256106628921L378.25606250000004,203.91679363044156L380.44314583333335,204.52919829817353L382.63022916666665,289.8060663448414L384.8173125,139.07047952915016L387.0043958333333,194.07975978830348L389.1914791666667,222.25588097498664L391.3785625,246.44367632741213L393.56564583333335,270.74271806795184L395.75272916666665,234.0309606027179L397.9398125,247.51735044311422L400.1268958333333,231.92581498356233L402.3139791666667,286.818223989668L404.5010625,244.8278266764548L406.68814583333335,295.8967296838934L408.87522916666666,328.3570186054263L411.76217916666667,230.435737114036L413.9492625,262.01589820271323L416.13634583333334,202.44612801209317L418.32342916666664,258.8864122098121L420.5105125,230.01585365599954L422.6975958333333,118.49585445498616L424.8846791666667,247.8500944322956L427.0717625,230.19585001085966L429.25884583333334,249.04602667248543L431.44592916666664,222.9956250507996L433.6330125,207.86596101069685L435.8200958333333,252.49592304974587L438.0071791666667,219.5055162328636L440.1942625,173.23518934116774L442.38134583333334,85.3135402331041L444.56842916666665,193.34549956026873L446.7555125,243.20339822845517L448.9425958333333,232.12869694610228L451.1296791666667,255.13097605847364L453.3167625,251.8121007816362L455.50384583333334,182.03166216176885L457.69092916666665,258.18273897423774L459.8780125,218.13665322255753L462.0650958333333,300.181474306322L464.2521791666667,148.09111760205005L466.4392625,160.39002724548814L468.62634583333335,204.52806801249454L470.81342916666665,176.8815238400426L473.0005125,292.5277194658127L475.1875958333333,179.55508487215198L477.3746791666667,274.84913328660514L479.5617625,236.76268082446617L481.7488458333333,319.55902201318474L483.93592916666665,258.09201386013734L486.82287916666667,261.13502674623385L489.00996250000003,318.93065184288355L491.19704583333333,309.4011883216558L493.3841291666667,286.3937622557273L495.57121250000006,248.97709744101326L497.7582958333333,307.81094250696935L499.9453791666666,269.7874365573448L502.1324625,281.85748701900354L504.31954583333334,313.68103496008143L506.5066291666667,298.8372686759191L508.6937125,229.47746595129544L510.88079583333337,343.1168470737109L513.0678791666667,259.95286921885906L515.2549624999999,321.5529531845137L517.4420458333333,331.0662295098929L519.6291291666666,273.80255645351167L521.8162125,310.3459437281612L524.0032958333334,238.6212752270972L526.1903791666667,313.4350191089608L528.3774625000001,338.0170383998757L530.5645458333333,328.3570186054263L532.7516291666666,377.6495010553248L534.9387125,353.4374887413511L537.1257958333333,295.3845069347338L539.3128791666667,294.392723710239L541.4999625,246.98484248591373L543.6870458333334,248.7185270446463L545.8741291666668,312.35907116919765L548.0612125,325.72232148585164L550.2482958333333,281.763300741695L552.4353791666666,292.3788505623543L554.6224625,300.67092987902623L556.8095458333333,279.43951655873343L558.9966291666667,365.77368342014034L561.8835791666667,281.14495894682545L564.0706625,250.30683202525523L566.2577458333333,315.48014186023397L568.4448291666666,336.31932954214847L570.6319125,239.19153999526048L572.8189958333334,365.77368342014034L575.0060791666667,294.77340582275025L577.1931625,327.44520444564245L579.3802458333333,283.51995027384754L581.5673291666667,290.38898531594623L583.7544125,333.5447225861666L585.9414958333333,300.6003735851616L588.1285791666667,246.10666481534034L590.3156625,306.8695879607661L592.5027458333334,329.5494995259477M596.8769125,355.58500964319023L599.0639958333333,344.0111219788084L601.2510791666666,368.22313429278205L603.4381625,278.3863750276506L605.6252458333333,372.46179707458447L607.8123291666667,297.5665545430946L609.9994125000001,375.7886456966031L612.1864958333333,286.70169100890973L614.3735791666667,305.00873260204446L616.5606624999999,321.20852790737734L618.7477458333333,314.6919890610811L620.9348291666666,419.3048286518413L623.1219125,324.5090924327759L625.3089958333334,279.8398658539782M629.6831625,311.5553468483748L631.8702458333333,335.3571944082072L634.0573291666666,315.7489111078213L636.9442791666667,331.32892474543155L639.1313625,303.6043242250495L641.3184458333333,362.52445851292055L643.5055291666666,272.48361131733344L645.6926125,359.6741652796162L647.8796958333334,329.5494995259477L650.0667791666667,374.0657627368123L652.2538625,310.2390548916659L654.4409458333333,294.17795746250675L656.6280291666667,265.21426036424964L658.8151124999999,321.5529531845137L661.0021958333333,269.5824403667368L663.1892791666667,349.08514220742126L665.3763625,398.0026442541141L667.5634458333334,311.5553468483748L669.7505291666666,393.7639814723117L671.9376125,313.3129806083342L674.1246958333334,419.3048286518413L676.3117791666666,374.0657627368123L678.4988625,296.30307702452615L680.6859458333333,363.5578855794053L682.8730291666667,304.2546681975387L685.0601125,363.5578855794053L687.2471958333333,315.21444432844464L689.4342791666667,301.755805444481L691.6213625,323.3560488092164L693.8084458333333,358.79676753023926M702.5567791666666,316.157982324378L704.7438625,329.79551537706834L706.9309458333333,403.1903482348544L709.1180291666667,384.3376147097689L712.0049791666667,341.02098903976355L714.1920625,344.4714990224132L716.3791458333334,435.41930906882817L718.5662291666667,307.2415683922295L720.7533125,354.84690698389375L722.9403958333332,298.77205606377936L725.1274791666666,398.0026442541141L727.3145625,271.1360993822981L729.5016458333333,344.0111219788084L731.6887291666667,393.7639814723117L733.8758125,341.02098903976355L736.0628958333334,348.52491555728267L738.2499791666667,377.6495010553248L740.4370624999999,261.26439981790406L742.6241458333333,358.79676753023926L744.8112291666666,288.47231172876786L746.9983125,337.6674336015006L749.1853958333334,363.5578855794053L751.3724791666667,319.55902201318474L753.5595625000001,336.64909792209824L755.7466458333333,364.6393959742695M760.1208124999999,387.0758678178675L762.3078958333333,325.3108367441452L764.4949791666667,352.10865387579514L766.6820625,327.8966415618215L768.8691458333334,288.8517118603167L771.0562291666668,381.88816383712725L773.2433125,342.25570118167815L775.4303958333333,293.18406632079353L777.6174791666666,324.5090924327759L779.8045625,278.3863750276506L781.9916458333333,303.4445415961979L784.1787291666667,345.420540221351L787.0656791666667,353.4374887413511L789.2527625,393.7639814723117L791.4398458333333,358.79676753023926L793.6269291666666,312.4761912203461L795.8140125,363.5578855794053L798.0010958333334,387.0758678178675L800.1881791666667,344.4714990224132L802.3752625000001,359.6741652796162L804.5623458333333,375.7886456966031L806.7494291666666,357.13546945675046L808.9365124999999,320.86913091640406L811.1235958333333,311.5553468483748L813.3106791666667,273.209511933553L815.4977625,305.43847276752683L817.6848458333334,270.8992727402596L819.8719291666667,403.1903482348544L822.0590125,328.59067163733295L824.2460958333332,336.64909792209824L826.4331791666666,403.1903482348544L828.6202625,343.5596848626293L830.8073458333333,290.61713514484836L832.9944291666667,307.81094250696935M837.3685958333334,324.312903243309L839.5556791666667,326.7840713347033L841.7427624999999,381.88816383712725L846.1169291666666,419.3048286518413L848.3040125,313.4350191089608L850.4910958333334,291.93787943054747L852.6781791666667,318.31881966437635L854.8652625000001,319.2427139912203M859.2394291666666,360.58597943940003Z" style="fill: none;" fill="none"></path></g></g></g></g></g></g><g transform="translate(48, 377)" clip-path="url(#clip_1)"><clipPath id="clip_1"><rect width="984" height="23"></rect></clipPath><g><g><line x1="0" y1="0" x2="0" y2="5" style="visibility: inherit;" fill="rgb(0, 0, 0)" stroke="rgb(204, 204, 204)" stroke-width="1px"></line><line x1="109.35416666666666" y1="0" x2="109.35416666666666" y2="5" style="visibility: inherit;" fill="rgb(0, 0, 0)" stroke="rgb(204, 204, 204)" stroke-width="1px"></line><line x1="218.70833333333331" y1="0" x2="218.70833333333331" y2="5" style="visibility: inherit;" fill="rgb(0, 0, 0)" stroke="rgb(204, 204, 204)" stroke-width="1px"></line><line x1="328.0625" y1="0" x2="328.0625" y2="5" style="visibility: inherit;" fill="rgb(0, 0, 0)" stroke="rgb(204, 204, 204)" stroke-width="1px"></line><line x1="437.41666666666663" y1="0" x2="437.41666666666663" y2="5" style="visibility: inherit;" fill="rgb(0, 0, 0)" stroke="rgb(204, 204, 204)" stroke-width="1px"></line><line x1="546.7708333333334" y1="0" x2="546.7708333333334" y2="5" style="visibility: inherit;" fill="rgb(0, 0, 0)" stroke="rgb(204, 204, 204)" stroke-width="1px"></line><line x1="656.125" y1="0" x2="656.125" y2="5" style="visibility: inherit;" fill="rgb(0, 0, 0)" stroke="rgb(204, 204, 204)" stroke-width="1px"></line><line x1="765.4791666666666" y1="0" x2="765.4791666666666" y2="5" style="visibility: inherit;" fill="rgb(0, 0, 0)" stroke="rgb(204, 204, 204)" stroke-width="1px"></line><line x1="874.8333333333333" y1="0" x2="874.8333333333333" y2="5" style="visibility: inherit;" fill="rgb(0, 0, 0)" stroke="rgb(204, 204, 204)" stroke-width="1px"></line><line x1="984.1875" y1="0" x2="984.1875" y2="5" style="visibility: inherit;" fill="rgb(0, 0, 0)" stroke="rgb(204, 204, 204)" stroke-width="1px"></line></g><g transform="translate(0, 8)"><text x="0" y="0" dx="0em" dy="0.95em" style="text-anchor: middle; visibility: hidden; font-family: &quot;Helvetica Neue&quot;, sans-serif; font-size: 12px; font-weight: 200;" fill="rgb(50, 49, 63)" stroke="none" stroke-width="1px">-5k</text><text x="109.35416666666666" y="0" dx="0em" dy="0.95em" style="text-anchor: middle; visibility: inherit; font-family: &quot;Helvetica Neue&quot;, sans-serif; font-size: 12px; font-weight: 200;" fill="rgb(50, 49, 63)" stroke="none" stroke-width="1px">0</text><text x="218.70833333333331" y="0" dx="0em" dy="0.95em" style="text-anchor: middle; visibility: inherit; font-family: &quot;Helvetica Neue&quot;, sans-serif; font-size: 12px; font-weight: 200;" fill="rgb(50, 49, 63)" stroke="none" stroke-width="1px">5k</text><text x="328.0625" y="0" dx="0em" dy="0.95em" style="text-anchor: middle; visibility: inherit; font-family: &quot;Helvetica Neue&quot;, sans-serif; font-size: 12px; font-weight: 200;" fill="rgb(50, 49, 63)" stroke="none" stroke-width="1px">10k</text><text x="437.41666666666663" y="0" dx="0em" dy="0.95em" style="text-anchor: middle; visibility: inherit; font-family: &quot;Helvetica Neue&quot;, sans-serif; font-size: 12px; font-weight: 200;" fill="rgb(50, 49, 63)" stroke="none" stroke-width="1px">15k</text><text x="546.7708333333334" y="0" dx="0em" dy="0.95em" style="text-anchor: middle; visibility: inherit; font-family: &quot;Helvetica Neue&quot;, sans-serif; font-size: 12px; font-weight: 200;" fill="rgb(50, 49, 63)" stroke="none" stroke-width="1px">20k</text><text x="656.125" y="0" dx="0em" dy="0.95em" style="text-anchor: middle; visibility: inherit; font-family: &quot;Helvetica Neue&quot;, sans-serif; font-size: 12px; font-weight: 200;" fill="rgb(50, 49, 63)" stroke="none" stroke-width="1px">25k</text><text x="765.4791666666666" y="0" dx="0em" dy="0.95em" style="text-anchor: middle; visibility: inherit; font-family: &quot;Helvetica Neue&quot;, sans-serif; font-size: 12px; font-weight: 200;" fill="rgb(50, 49, 63)" stroke="none" stroke-width="1px">30k</text><text x="874.8333333333333" y="0" dx="0em" dy="0.95em" style="text-anchor: middle; visibility: inherit; font-family: &quot;Helvetica Neue&quot;, sans-serif; font-size: 12px; font-weight: 200;" fill="rgb(50, 49, 63)" stroke="none" stroke-width="1px">35k</text><text x="984.1875" y="0" dx="0em" dy="0.95em" style="text-anchor: middle; visibility: hidden; font-family: &quot;Helvetica Neue&quot;, sans-serif; font-size: 12px; font-weight: 200;" fill="rgb(50, 49, 63)" stroke="none" stroke-width="1px">40k</text></g><line x1="0" y1="0" x2="984.1875" y2="0" fill="rgb(0, 0, 0)" stroke="rgb(204, 204, 204)" stroke-width="1px"></line></g></g></g></g></svg>