<svg viewBox="0 0 1033 400" xmlns="http://www.w3.org/2000/svg"><g><g><g><g><g><line x1="48.8125" y1="377" x2="43.8125" y2="377" style="visibility: inherit;" fill="rgb(0, 0, 0)" stroke="rgb(204, 204, 204)" stroke-width="1px"></line><line x1="48.8125" y1="335.1111111111111" x2="43.8125" y2="335.1111111111111" style="visibility: inherit;" fill="rgb(0, 0, 0)" stroke="rgb(204, 204, 204)" stroke-width="1px"></line><line x1="48.8125" y1="293.22222222222223" x2="43.8125" y2="293.22222222222223" style="visibility: inherit;" fill="rgb(0, 0, 0)" stroke="rgb(204, 204, 204)" stroke-width="1px"></line><line x1="48.8125" y1="251.33333333333334" x2="43.8125" y2="251.33333333333334" style="visibility: inherit;" fill="rgb(0, 0, 0)" stroke="rgb(204, 204, 204)" stroke-width="1px"></line><line x1="48.8125" y1="209.44444444444446" x2="43.8125" y2="209.44444444444446" style="visibility: inherit;" fill="rgb(0, 0, 0)" stroke="rgb(204, 204, 204)" stroke-width="1px"></line><line x1="48.8125" y1="167.55555555555554" x2="43.8125" y2="167.55555555555554" style="visibility: inherit;" fill="rgb(0, 0, 0)" stroke="rgb(204, 204, 204)" stroke-width="1px"></line><line x1="48.8125" y1="125.66666666666669" x2="43.8125" y2="125.66666666666669" style="visibility: inherit;" fill="rgb(0, 0, 0)" stroke="rgb(204, 204, 204)" stroke-width="1px"></line><line x1="48.8125" y1="83.77777777777777" x2="43.8125" y2="83.77777777777777" style="visibility: inherit;" fill="rgb(0, 0, 0)" stroke="rgb(204, 204, 204)" stroke-width="1px"></line><line x1="48.8125" y1="41.888888888888914" x2="43.8125" y2="41.888888888888914" style="visibility: inherit;" fill="rgb(0, 0, 0)" stroke="rgb(204, 204, 204)" stroke-width="1px"></line><line x1="48.8125" y1="0" x2="43.8125" y2="0" style="visibility: inherit;" fill="rgb(0, 0, 0)" stroke="rgb(204, 204, 204)" stroke-width="1px"></line></g><g transform="translate(38.8125, 0)"><text x="0" y="377" dx="0em" dy="0.3em" style="text-anchor: end; visibility: hidden; font-family: &quot;Helvetica Neue&quot;, sans-serif; font-size: 12px; font-weight: 200;" fill="rgb(50, 49, 63)" stroke="none" stroke-width="1px">-0.5</text><text x="0" y="335.1111111111111" dx="0em" dy="0.3em" style="text-anchor: end; visibility: inherit; font-family: &quot;Helvetica Neue&quot;, sans-serif; font-size: 12px; font-weight: 200;" fill="rgb(50, 49, 63)" stroke="none" stroke-width="1px">0</text><text x="0" y="293.22222222222223" dx="0em" dy="0.3em" style="text-anchor: end; visibility: inherit; font-family: &quot;Helvetica Neue&quot;, sans-serif; font-size: 12px; font-weight: 200;" fill="rgb(50, 49, 63)" stroke="none" stroke-width="1px">0.5</text><text x="0" y="251.33333333333334" dx="0em" dy="0.3em" style="text-anchor: end; visibility: inherit; font-family: &quot;Helvetica Neue&quot;, sans-serif; font-size: 12px; font-weight: 200;" fill="rgb(50, 49, 63)" stroke="none" stroke-width="1px">1</text><text x="0" y="209.44444444444446" dx="0em" dy="0.3em" style="text-anchor: end; visibility: inherit; font-family: &quot;Helvetica Neue&quot;, sans-serif; font-size: 12px; font-weight: 200;" fill="rgb(50, 49, 63)" stroke="none" stroke-width="1px">1.5</text><text x="0" y="167.55555555555554" dx="0em" dy="0.3em" style="text-anchor: end; visibility: inherit; font-family: &quot;Helvetica Neue&quot;, sans-serif; font-size: 12px; font-weight: 200;" fill="rgb(50, 49, 63)" stroke="none" stroke-width="1px">2</text><text x="0" y="125.66666666666669" dx="0em" dy="0.3em" style="text-anchor: end; visibility: inherit; font-family: &quot;Helvetica Neue&quot;, sans-serif; font-size: 12px; font-weight: 200;" fill="rgb(50, 49, 63)" stroke="none" stroke-width="1px">2.5</text><text x="0" y="83.77777777777777" dx="0em" dy="0.3em" style="text-anchor: end; visibility: inherit; font-family: &quot;Helvetica Neue&quot;, sans-serif; font-size: 12px; font-weight: 200;" fill="rgb(50, 49, 63)" stroke="none" stroke-width="1px">3</text><text x="0" y="41.888888888888914" dx="0em" dy="0.3em" style="text-anchor: end; visibility: inherit; font-family: &quot;Helvetica Neue&quot;, sans-serif; font-size: 12px; font-weight: 200;" fill="rgb(50, 49, 63)" stroke="none" stroke-width="1px">3.5</text><text x="0" y="0" dx="0em" dy="0.3em" style="text-anchor: end; visibility: hidden; font-family: &quot;Helvetica Neue&quot;, sans-serif; font-size: 12px; font-weight: 200;" fill="rgb(50, 49, 63)" stroke="none" stroke-width="1px">4</text></g><line x1="48.8125" y1="0" x2="48.8125" y2="377" fill="rgb(0, 0, 0)" stroke="rgb(204, 204, 204)" stroke-width="1px"></line></g></g><g transform="translate(48, 0)" clip-path="url(#clip_0)"><clipPath id="clip_0"><rect width="984" height="377"></rect></clipPath><g><g><g><line x1="0" y1="0" x2="0" y2="377" fill="rgb(0, 0, 0)" stroke="rgb(60, 60, 60)" stroke-width="1px" opacity="0.25"></line><line x1="109.35416666666666" y1="0" x2="109.35416666666666" y2="377" fill="rgb(0, 0, 0)" stroke="rgb(60, 60, 60)" stroke-width="1px" opacity="0.25"></line><line x1="218.70833333333331" y1="0" x2="218.70833333333331" y2="377" fill="rgb(0, 0, 0)" stroke="rgb(60, 60, 60)" stroke-width="1px" opacity="0.25"></line><line x1="328.0625" y1="0" x2="328.0625" y2="377" fill="rgb(0, 0, 0)" stroke="rgb(60, 60, 60)" stroke-width="1px" opacity="0.25"></line><line x1="437.41666666666663" y1="0" x2="437.41666666666663" y2="377" fill="rgb(0, 0, 0)" stroke="rgb(60, 60, 60)" stroke-width="1px" opacity="0.25"></line><line x1="546.7708333333334" y1="0" x2="546.7708333333334" y2="377" fill="rgb(0, 0, 0)" stroke="rgb(60, 60, 60)" stroke-width="1px" opacity="0.25"></line><line x1="656.125" y1="0" x2="656.125" y2="377" fill="rgb(0, 0, 0)" stroke="rgb(60, 60, 60)" stroke-width="1px" opacity="0.25"></line><line x1="765.4791666666666" y1="0" x2="765.4791666666666" y2="377" fill="rgb(0, 0, 0)" stroke="rgb(60, 60, 60)" stroke-width="1px" opacity="0.25"></line><line x1="874.8333333333333" y1="0" x2="874.8333333333333" y2="377" fill="rgb(0, 0, 0)" stroke="rgb(60, 60, 60)" stroke-width="1px" opacity="0.25"></line><line x1="984.1875" y1="0" x2="984.1875" y2="377" fill="rgb(0, 0, 0)" stroke="rgb(60, 60, 60)" stroke-width="1px" opacity="0.25"></line></g><g><line x1="0" y1="377" x2="984.1875" y2="377" fill="rgb(0, 0, 0)" stroke="rgb(60, 60, 60)" stroke-width="1px" opacity="0.25"></line><line x1="0" y1="335.1111111111111" x2="984.1875" y2="335.1111111111111" fill="rgb(0, 0, 0)" stroke="rgb(60, 60, 60)" stroke-width="1px" opacity="0.25"></line><line x1="0" y1="293.22222222222223" x2="984.1875" y2="293.22222222222223" fill="rgb(0, 0, 0)" stroke="rgb(60, 60, 60)" stroke-width="1px" opacity="0.25"></line><line x1="0" y1="251.33333333333334" x2="984.1875" y2="251.33333333333334" fill="rgb(0, 0, 0)" stroke="rgb(60, 60, 60)" stroke-width="1px" opacity="0.25"></line><line x1="0" y1="209.44444444444446" x2="984.1875" y2="209.44444444444446" fill="rgb(0, 0, 0)" stroke="rgb(60, 60, 60)" stroke-width="1px" opacity="0.25"></line><line x1="0" y1="167.55555555555554" x2="984.1875" y2="167.55555555555554" fill="rgb(0, 0, 0)" stroke="rgb(60, 60, 60)" stroke-width="1px" opacity="0.25"></line><line x1="0" y1="125.66666666666669" x2="984.1875" y2="125.66666666666669" fill="rgb(0, 0, 0)" stroke="rgb(60, 60, 60)" stroke-width="1px" opacity="0.25"></line><line x1="0" y1="83.77777777777777" x2="984.1875" y2="83.77777777777777" fill="rgb(0, 0, 0)" stroke="rgb(60, 60, 60)" stroke-width="1px" opacity="0.25"></line><line x1="0" y1="41.888888888888914" x2="984.1875" y2="41.888888888888914" fill="rgb(0, 0, 0)" stroke="rgb(60, 60, 60)" stroke-width="1px" opacity="0.25"></line><line x1="0" y1="0" x2="984.1875" y2="0" fill="rgb(0, 0, 0)" stroke="rgb(60, 60, 60)" stroke-width="1px" opacity="0.25"></line></g></g></g><g><g><line x1="0" y1="335.1111111111111" x2="984.1875" y2="335.1111111111111" fill="rgb(0, 0, 0)" stroke="rgb(153, 153, 153)" stroke-width="1.5px"></line></g></g><g><g><line x1="109.35416666666666" y1="0" x2="109.35416666666666" y2="377" fill="rgb(0, 0, 0)" stroke="rgb(153, 153, 153)" stroke-width="1.5px"></line></g></g><g><g><g><g><g><path stroke="rgb(255, 112, 67)" stroke-width="2px" d="M111.51937916666667,62.12686660554675L113.7064625,61.97700158646029L115.89354583333333,63.234713098565805L118.08062916666667,63.487925366497734L120.2677125,63.42630157362572L122.45479583333334,62.538230878287095L124.64187916666667,62.736630545305104L126.82896249999999,63.37494494863944L129.01604583333335,62.736261643214675L131.20312916666666,63.92679546194438L133.39021250000002,67.28655633974904L135.57729583333332,69.26406452825137L137.76437916666669,67.580459315741L139.9514625,67.95119570385941L142.13854583333335,66.07512609623734L144.32562916666666,69.09516942103818L146.51271250000002,68.26522145005862L148.69979583333333,66.68650244383122L150.8868791666667,66.93952686351832L153.0739625,68.13574787892384L155.26104583333336,68.70280042205326L157.44812916666666,67.77062814540761L159.63521250000002,66.71379182398152L161.82229583333333,69.55939454248352L164.0093791666667,71.94535777693545L166.1964625,74.28687311832101L168.38354583333336,78.57835940512632L170.57062916666666,98.13274570944162L172.75771250000003,92.19939783498648L174.94479583333333,86.08496028693037L177.13187916666666,108.89249045886174L179.3189625,120.06015046608286L181.50604583333333,128.965066423082L183.69312916666667,158.4881635767397L186.58007916666668,170.9003296346202L188.7671625,170.84015820630137L190.95424583333335,178.25538017624453L193.14132916666668,187.23070266814614L195.3284125,171.57562337776469L197.51549583333335,182.0882100930168L199.70257916666665,175.61690182752378L201.88966250000001,207.8348093047656L204.07674583333332,223.37254888918957L206.26382916666668,223.5801683826243L208.4509125,242.30209996417275L210.63799583333335,234.56122402459738L212.82507916666665,241.27121682789425L215.01216250000002,249.63431146915903L217.19924583333332,243.12831907864413L219.38632916666668,214.71726938408844L221.5734125,226.66793864029376L223.76049583333335,231.28309441877104L225.94757916666666,238.56362644723131L228.13466250000002,240.75556129318164L230.32174583333332,247.322396345135L232.5088291666667,243.68658603721823L234.6959125,259.8691161519377L236.88299583333335,251.28575287551212L239.07007916666666,267.9329108404757L241.25716250000002,277.0858878173939L243.44424583333333,284.96810734251096L245.6313291666667,295.06195376747615L247.81841250000002,285.78611045796765L250.00549583333333,281.66016431042215L252.19257916666666,282.7442054531911L254.37966250000002,288.6481131298816L256.56674583333336,298.81748149413386L258.75382916666666,307.11383806994786L261.6407791666667,303.55380477151846L263.8278625,311.4310056430063L266.01494583333334,305.81897804627175L268.20202916666665,314.2097225253796L270.3891125,314.360309444353L272.5761958333333,318.3184456890438L274.7632791666667,312.726386987L276.9503625,317.47210091977274L279.13744583333335,318.90712663235007L281.32452916666665,317.12826290966836L283.5116125,321.5403393084345L285.6986958333333,325.4387644912149L287.8857791666667,327.64108481214976L290.07286250000004,329.7536987347574L292.2599458333333,321.9145032008594L294.44702916666665,321.8907825467872L296.6341125,324.47316307499267L298.8211958333334,323.4781489574643L301.0082791666666,325.05814388355486L303.1953625,327.9526377386902L305.38244583333335,323.0732079277043L307.5695291666667,326.36479850315214L309.75661249999996,326.3192274299425L311.9436958333333,327.52068811410675L314.1307791666667,329.05726839083417L316.31786250000005,330.61368571788614L318.5049458333333,330.484687167547L320.69202916666666,331.7289405929535L322.8791125,331.8591540438908L325.0661958333334,332.6376384830657L327.25327916666663,333.200676015695L329.4403625,333.3643420226966L331.62744583333335,333.67168549340545L333.8145291666667,334.09241419391225L336.7014791666666,333.78159785435116L338.8885625,332.87325582169353L341.07564583333334,333.34652011231447L343.2627291666667,333.85255002957956L345.4498125,331.51367145600216L347.6368958333333,329.14735338520256L349.8239791666667,330.7252938165076L352.01106250000004,321.2870409094187L354.19814583333334,325.31348703751604L356.38522916666665,327.84444288311715L358.5723125,329.5493176575828L360.7593958333334,329.57043148506574L362.9464791666667,329.5438134427112L365.1335625,329.3891858532077L367.32064583333334,326.27595525427466L369.5077291666667,328.6339691232862L371.6948125,328.9159760126827L373.8818958333333,329.58417696489056L376.0689791666667,330.8417499593497L378.25606250000004,331.9883247523159L380.44314583333335,332.79648807256814L382.63022916666665,333.48312077779036L384.8173125,331.92326409141856L387.0043958333333,332.6813401815774L389.1914791666667,333.3482995495709L391.3785625,333.85343908006513L393.56564583333335,334.2211301974422L395.75272916666665,334.45192828067945L397.9398125,334.6290971520087L400.1268958333333,334.73505921950044L402.3139791666667,334.84356915695787L404.5010625,334.90166598196635L406.68814583333335,334.9616758991249L408.87522916666666,335.0056123617704L411.76217916666667,334.99687888084753L413.9492625,335.02059283583316L416.13634583333334,334.9136642226483L418.32342916666664,334.9606880694613L420.5105125,334.9646098940991L422.6975958333333,330.05329157286764L424.8846791666667,331.541527989167L427.0717625,332.5646749899115L429.25884583333334,333.305471516774L431.44592916666664,333.7882284146107L433.6330125,334.0763892829749L435.8200958333333,334.3691830141048L438.0071791666667,334.52599269016207L440.1942625,334.2299532469007L442.38134583333334,313.8429764617692L444.56842916666665,319.982820605768L446.7555125,324.46785504274663L448.9425958333333,327.60219463558803L451.1296791666667,329.8259650171131L453.3167625,331.3849208996593L455.50384583333334,332.1731094418189L457.69092916666665,333.0364555226979L459.8780125,333.5865192312466L462.0650958333333,334.03884763687756L464.2521791666667,332.9710486028056L466.4392625,332.79139881452016L468.62634583333335,333.36024011193024L470.81342916666665,333.47987978296993L473.0005125,333.96320699219774L475.1875958333333,333.9468465012498L477.3746791666667,334.2878510020298L479.5617625,334.5025817131741L481.7488458333333,334.6830544371908L483.93592916666665,334.7983892910069L486.82287916666667,334.88085433931235L489.00996250000003,334.94857801151875L491.19704583333333,334.99566765420764L493.3841291666667,335.02645080276443L495.57121250000006,335.0335845666493L497.7582958333333,335.05524701902505L499.9453791666666,335.0645017553289L502.1324625,335.07399258976193L504.31954583333334,335.08393487573437L506.5066291666667,335.08991437320265L508.6937125,335.0543684381781L510.88079583333337,335.0709622825331L513.0678791666667,335.07164106266896L515.2549624999999,335.08260552819934L517.4420458333333,335.0905704367386L519.6291291666666,335.09047139870074L521.8162125,335.09533038275674L524.0032958333334,335.0717833990237L526.1903791666667,335.08237211922557L528.3774625000001,335.09054348666007L530.5645458333333,335.0960774082201L532.7516291666666,335.10048602401844L534.9387125,335.1034499215931L537.1257958333333,335.1032746539954L539.3128791666667,335.10304447464716L541.4999625,335.0857342972792L543.6870458333334,335.07499920141976L545.8741291666668,335.0845760417603L548.0612125,335.09181683423725L550.2482958333333,335.0931499182398L552.4353791666666,335.0957047702414L554.6224625,335.09833755138874L556.8095458333333,335.09726318186955L558.9966291666667,335.10127081867824L561.8835791666667,335.09966756921216L564.0706625,335.08598867628524L566.2577458333333,335.0924394607474L568.4448291666666,335.09758099888205L570.6319125,335.074047846649L572.8189958333334,335.0849736533534L575.0060791666667,335.09023883833333L577.1931625,335.09583973587365L579.3802458333333,335.0962954196728L581.5673291666667,335.09766291542627L583.7544125,335.1011942933193L585.9414958333333,335.1021852442841L588.1285791666667,335.0843721986432L590.3156625,335.0908404136321L592.5027458333334,335.0963156124808L594.6898291666666,335.1007246710726L596.8769125,335.10363530874093L599.0639958333333,335.10555953027875L601.2510791666666,335.10710675987207L603.4381625,335.10319297862486L605.6252458333333,335.1054632975268L607.8123291666667,335.1049082791957L609.9994125000001,335.106679343138L612.1864958333333,335.10442862683567L614.3735791666667,335.10479502781266L616.5606624999999,335.1058677071197L618.7477458333333,335.10635882656163L620.9348291666666,335.10776310274684L623.1219125,335.10805843721823L625.3089958333334,335.10417057599557L627.4960791666667,335.10623885546L629.6831625,335.1064646127597L631.8702458333333,335.1074087986789L634.0573291666666,335.1074882912783L636.9442791666667,335.10804408872525L639.1313625,335.10723189286966L641.3184458333333,335.1082509968846L643.5055291666666,335.10252006130213L645.6926125,335.1049254342084L647.8796958333334,335.1062032969253L650.0667791666667,335.107582493279L652.2538625,335.1073364188454L654.4409458333333,335.1058720243508L656.6280291666667,335.09843338664626L658.8151124999999,335.1014137396314L661.0021958333333,335.09684531783665L663.1892791666667,335.10085247971665L665.3763625,335.10387979034584L667.5634458333334,335.10480854904955L669.7505291666666,335.1066509987123L671.9376125,335.1068432219017L674.1246958333334,335.1081031482756L676.3117791666666,335.1089161889269L678.4988625,335.107207210548L680.6859458333333,335.1082396222L682.8730291666667,335.1074167758111L685.0601125,335.1083867370147L687.2471958333333,335.10815099476895L689.4342791666667,335.1071640855861L691.6213625,335.10760221333976L693.8084458333333,335.10848715263353L695.9955291666666,335.10926909225986L698.1826125,335.1097584908249L700.3696958333334,335.1101615716702L702.5567791666666,335.109438594834L704.7438625,335.1093774879897L706.9309458333333,335.1098702984589L709.1180291666667,335.11018648988187L712.0049791666667,335.11011679330284L714.1920625,335.11011548474653L716.3791458333334,335.1104062290979L718.5662291666667,335.10914011223235L720.7533125,335.1095369961298L722.9403958333332,335.107881109415L725.1274791666666,335.10881388839414L727.3145625,335.10252235899446L729.5016458333333,335.10477823955677L731.6887291666667,335.10662972144837L733.8758125,335.10761994186254L736.0628958333334,335.1084103134775L738.2499791666667,335.1091437235092L740.4370624999999,335.0990634739816L742.6241458333333,335.10249295760406L744.8112291666666,335.1017516856224L746.9983125,335.10414198996534L749.1853958333334,335.10608783735097L751.3724791666667,335.10671573636296L753.5595625000001,335.10760889666943L755.7466458333333,335.1085275581625L757.9337291666666,335.1092974569412L760.1208124999999,335.1097903074417L762.3078958333333,335.10950534413513L764.4949791666667,335.10976957970445L766.6820625,335.1095622209267L768.8691458333334,335.1067678792223L771.0562291666668,335.1080026392725L773.2433125,335.1086015870909L775.4303958333333,335.1066470786591L777.6174791666666,335.10727498830863L779.8045625,335.10331107498735L781.9916458333333,335.10389741261514L784.1787291666667,335.10576138411426L787.0656791666667,335.10715322438034L789.2527625,335.1082969607945L791.4398458333333,335.10897486534674L793.6269291666666,335.10843291014226L795.8140125,335.10910006331517L798.0010958333334,335.1096517371162L800.1881791666667,335.10978901530353L802.3752625000001,335.1100282399173L804.5623458333333,335.1102735555646L806.7494291666666,335.11035053026484L808.9365124999999,335.1097557652306L811.1235958333333,335.10893348341864L813.3106791666667,335.10320154522805L815.4977625,335.1039633780505L817.6848458333334,335.09904587307005L819.8719291666667,335.1026175047852L822.0590125,335.1045593212492L824.2460958333332,335.10609509325957L826.4331791666666,335.10756605735827L828.6202625,335.1083129635029L830.8073458333333,335.1061289927213L832.9944291666667,335.1061732061276L835.1815125,335.10764470181266L837.3685958333334,335.1079693674572L839.5556791666667,335.10826871040285L841.7427624999999,335.10905622276124L843.9298458333333,335.10959715182634L846.1169291666666,335.1100364070827L848.3040125,335.109225730883L850.4910958333334,335.10693641996954L852.6781791666667,335.1072638229191L854.8652625000001,335.1075293736212L857.0523458333333,335.1085967313932L859.2394291666666,335.1091972089176" style="fill: none;" fill="none"></path></g></g></g></g><g opacity="0.2"><g><g><g><path stroke="rgb(255, 112, 67)" stroke-width="2px" d="M111.51937916666667,62.12686660554675L113.7064625,61.871796343061646L115.89354583333333,64.7374318440755L118.08062916666667,63.87806277804907L120.2677125,63.31638887193469L122.45479583333334,60.802858193715394L124.64187916666667,63.148066467708986L126.82896249999999,64.75229263305664L129.01604583333335,61.32044908735486L131.20312916666666,66.61522436141968L133.39021250000002,74.9711224238078L135.57729583333332,73.82744089762372L137.76437916666669,63.67119020885889L139.9514625,68.81575965881348L142.13854583333335,61.686855422125916L144.32562916666666,76.17424710591632L146.51271250000002,66.31691000196668L148.69979583333333,62.976588143242736L150.8868791666667,67.53455591201782L153.0739625,70.95030026965674L155.26104583333336,70.03748030132715L157.44812916666666,65.57600779003565L159.63521250000002,64.22523397869531L161.82229583333333,76.26083517074585L164.0093791666667,77.56482945548163L166.1964625,79.80199739668103L168.38354583333336,88.6868117120531L170.57062916666666,144.1938360002306L172.75771250000003,78.22287877400714L174.94479583333333,71.68165482415094L177.13187916666666,162.61897722880047L179.3189625,146.367406156328L181.50604583333333,149.94216495090063L183.69312916666667,228.03527148564658L186.58007916666668,200.13955317603217L188.7671625,170.69841268327502L190.95424583333335,195.72340207629733L193.14132916666668,208.37386841244168L195.3284125,134.6969329516093L197.51549583333335,206.8527348306444L199.70257916666665,160.37242142359418L201.88966250000001,283.7306472857793L204.07674583333332,259.9748621516758L206.26382916666668,224.06925847795276L208.4509125,286.40543450249567L210.63799583333335,216.32600842581854L212.82507916666665,257.0779770480262L215.01216250000002,269.3352916240692L217.19924583333332,227.8021228843265L219.38632916666668,147.78922812143963L221.5734125,254.82018576727972L223.76049583333335,242.1550384097629L225.94757916666666,255.71440977520413L228.13466250000002,245.91911247041492L230.32174583333332,262.79192044999866L232.5088291666667,235.12169064415826L234.6959125,297.99037827385797L236.88299583333335,231.06588371594748L239.07007916666666,307.1486990186903L241.25716250000002,298.6475986639659L243.44424583333333,303.53628889719647L245.6313291666667,318.8400752014584L247.81841250000002,263.93496280246313L250.00549583333333,271.94065358903674L252.19257916666666,285.29788626564874L254.37966250000002,302.555976178911L256.56674583333336,322.77351032363043L258.75382916666666,326.6576042307748L261.6407791666667,295.16741760571796L263.8278625,329.98736474249097L266.01494583333334,292.59869827164545L268.20202916666665,333.9758387141758L270.3891125,314.71504775683087L272.5761958333333,327.64264583587646L274.7632791666667,299.55314803123474L276.9503625,328.6516015264723L279.13744583333335,322.287623445193L281.32452916666665,312.9377852810754L283.5116125,331.9338884088728L285.6986958333333,334.6223030090332L287.8857791666667,332.8291011386448L290.07286250000004,334.73039327727423L292.2599458333333,303.44767345322504L294.44702916666665,321.83490369055005L296.6341125,330.55648901727466L298.8211958333334,321.13418952624005L301.0082791666666,328.7801453537411L303.1953625,334.77121051152545L305.38244583333335,311.57871219846936L307.5695291666667,334.1188138855828L309.75661249999996,326.2118754386902L311.9436958333333,330.3509746922387L314.1307791666667,332.6769977675544L316.31786250000005,334.2801453272502L318.5049458333333,330.18080467647974L320.69202916666666,334.66003423266943L322.8791125,332.1658984820048L325.0661958333334,334.47151793373956L327.25327916666663,334.52702617645264L329.4403625,333.74989080429077L331.62744583333335,334.3956959512499L333.8145291666667,335.08352677027386L336.7014791666666,333.04940634303625L338.8885625,330.7334702279833L341.07564583333334,334.4613910251194L343.2627291666667,335.04460708300275L345.4498125,326.0039642122057L347.6368958333333,323.5730067888896L349.8239791666667,334.44245550367566L352.01106250000004,299.05330419540405L354.19814583333334,334.79860509766473L356.38522916666665,333.8066274589962L358.5723125,333.5654991732703L360.7593958333334,329.6201694276598L362.9464791666667,329.4811091952854L365.1335625,329.0249289141761L367.32064583333334,318.94210330645245L369.5077291666667,334.18875347243414L371.6948125,329.5803009668986L373.8818958333333,331.1582610872057L376.0689791666667,333.8042205704583L378.25606250000004,334.6893163786994L380.44314583333335,334.7002822028266L382.63022916666665,335.1006246672736L384.8173125,328.2487023671468L387.0043958333333,334.46714358859595L389.1914791666667,334.9194588661194L391.3785625,335.0433986451891L393.56564583333335,335.08730189005536L395.75272916666665,334.99562040964764L397.9398125,335.046454694536L400.1268958333333,334.98467455969916L402.3139791666667,335.0991865264045L404.5010625,335.03852494557697L406.68814583333335,335.10304154290094L408.87522916666666,335.1091136932373L411.76217916666667,334.9763053788079L413.9492625,335.07645591100055L416.13634583333334,334.6617719862196L418.32342916666664,335.07146236631604L420.5105125,334.9738485548231L422.6975958333333,318.4836759302351L424.8846791666667,335.04737350675794L427.0717625,334.97490718629626L429.25884583333334,335.050569375356L431.44592916666664,334.9254611068302L433.6330125,334.75521119435626L435.8200958333333,335.05891858206854L438.0071791666667,334.89538998074L440.1942625,333.5325717396206L442.38134583333334,265.81727947129144L444.56842916666665,334.4464803006914L446.7555125,335.03327173656885L448.9425958333333,334.9857731395298L451.1296791666667,335.06451135211523L453.3167625,335.05736059612695L455.50384583333334,334.02984889348346L457.69092916666665,335.070243941413L459.8780125,334.88230689366657L462.0650958333333,335.1043997870551L464.2521791666667,330.4556294017368L466.4392625,332.3681969642639L468.62634583333335,334.7002622286479L470.81342916666665,333.7617155181037L473.0005125,335.10178316964044L475.1875958333333,333.90830601586237L477.3746791666667,335.09115690655176L479.5617625,335.00842385821875L481.7488458333333,335.1081948810154L483.93592916666665,335.07008414798315L486.82287916666667,335.07511764102514L489.00996250000003,335.1081149843004L491.19704583333333,335.1065969467163L493.3841291666667,335.09896681043836L495.57121250000006,335.0503896077474L497.7582958333333,335.1062773598565L499.9453791666666,335.0863031811184L502.1324625,335.0963501930237L504.31954583333334,335.10735596550836L506.5066291666667,335.10400030348035L508.6937125,334.9706327120463L510.88079583333337,335.110052479638L513.0678791666667,335.07324006822375L515.2549624999999,335.1084345711602L517.4420458333333,335.10933340920343L519.6291291666666,335.09023809432983L521.8162125,335.10677671432495L524.0032958333334,335.01631365882025L526.1903791666667,335.1073160171509L528.3774625000001,335.1097928153144L530.5645458333333,335.1091136932373L532.7516291666666,335.11087142096625L534.9387125,335.110431989034L537.1257958333333,335.1028617752923L539.3128791666667,335.102502240075L541.4999625,335.0449566311306L543.6870458333334,335.0497104856703L545.8741291666668,335.10713624954224L548.0612125,335.10887400309247L550.2482958333333,335.0962902704875L552.4353791666666,335.10172324710425L554.6224625,335.1045396063063L556.8095458333333,335.0947322845459L558.9966291666667,335.1107116275364L561.8835791666667,335.0958907869127L564.0706625,335.0537652439541L566.2577458333333,335.1076356040107L568.4448291666666,335.1096929444207L570.6319125,335.0186106893751L572.8189958333334,335.1107116275364L575.0060791666667,335.1026420593262L577.1931625,335.10903379652234L579.3802458333333,335.09736887613934L581.5673291666667,335.10088433159723L583.7544125,335.1095131768121L585.9414958333333,335.10451963212756L588.1285791666667,335.04240992334155L590.3156625,335.1060776180691L592.5027458333334,335.109213564131L594.6898291666666,335.1111111111111L596.8769125,335.11049191157025L599.0639958333333,335.1100924279955L601.2510791666666,335.1107515758938L603.4381625,335.09397326575385L605.6252458333333,335.11081149843005L607.8123291666667,335.1036008199056L609.9994125000001,335.11085144678754L612.1864958333333,335.0991266038683L614.3735791666667,335.1056581603156L616.5606624999999,335.10839462280273L618.7477458333333,335.10751575893823L620.9348291666666,335.11107116275366L623.1219125,335.10875415802L625.3089958333334,335.0950119230482L627.4960791666667,335.1111111111111L629.6831625,335.1069964302911L631.8702458333333,335.1096330218845L634.0573291666666,335.10767555236816L636.9442791666667,335.10935338338214L639.1313625,335.1053185992771L641.3184458333333,335.1106517050001L643.5055291666666,335.0890196694268L645.6926125,335.1105917824639L647.8796958333334,335.109213564131L650.0667791666667,335.11083147260877L652.2538625,335.10675674014624L654.4409458333333,335.10242234336005L656.6280291666667,335.08091015285913L658.8151124999999,335.1084345711602L661.0021958333333,335.08608346515234L663.1892791666667,335.11029216978284L665.3763625,335.1110112402174L667.5634458333334,335.1069964302911L669.7505291666666,335.1109912660387L671.9376125,335.10729604297217L674.1246958333334,335.11107116275366L676.3117791666666,335.11083147260877L678.4988625,335.1031813621521L680.6859458333333,335.1106716791789L682.8730291666667,335.10547839270697L685.0601125,335.1106716791789L687.2471958333333,335.1075956556532L689.4342791666667,335.10483921898737L691.6213625,335.1086343129476L693.8084458333333,335.11057180828516L695.9955291666666,335.1111111111111L698.1826125,335.11091136932373L700.3696958333334,335.1111111111111L702.5567791666666,335.10773547490436L704.7438625,335.10923353830975L706.9309458333333,335.1110312143962L709.1180291666667,335.11093134350244L712.0049791666667,335.1099526087443L714.1920625,335.1101124021742L716.3791458333334,335.1110911369324L718.5662291666667,335.10615751478406L720.7533125,335.1104719373915L722.9403958333332,335.10398032930163L725.1274791666666,335.1110112402174L727.3145625,335.0877013736301L729.5016458333333,335.1100924279955L731.6887291666667,335.1109912660387L733.8758125,335.1099526087443L736.0628958333334,335.1102721956041L738.2499791666667,335.11087142096625L740.4370624999999,335.0753173828125L742.6241458333333,335.11057180828516L744.8112291666666,335.10000546773273L746.9983125,335.1097728411357L749.1853958333334,335.1106716791789L751.3724791666667,335.1081948810154L753.5595625000001,335.1097129185994L755.7466458333333,335.1106916533576L757.9337291666666,335.1111111111111L760.1208124999999,335.1109513176812L762.3078958333333,335.108834054735L764.4949791666667,335.1103920406765L766.6820625,335.1090737448798L768.8691458333334,335.10018523534137L771.0562291666668,335.11091136932373L773.2433125,335.1100125312805L775.4303958333333,335.10204283396405L777.6174791666666,335.10875415802L779.8045625,335.09397326575385L781.9916458333333,335.1052786509196L784.1787291666667,335.1101523505317L787.0656791666667,335.110431989034L789.2527625,335.1109912660387L791.4398458333333,335.11057180828516L793.6269291666666,335.10715622372095L795.8140125,335.1106716791789L798.0010958333334,335.1109513176812L800.1881791666667,335.1101124021742L802.3752625000001,335.1105917824639L804.5623458333333,335.11085144678754L806.7494291666666,335.11053185992773L808.9365124999999,335.10835467444525L811.1235958333333,335.1069964302911L813.3106791666667,335.0896987915039L815.4977625,335.1057580312093L817.6848458333334,335.08746168348523L819.8719291666667,335.1110312143962L822.0590125,335.109133667416L824.2460958333332,335.1097129185994L826.4331791666666,335.1110312143962L828.6202625,335.1100724538167L830.8073458333333,335.1009842024909L832.9944291666667,335.1062773598565L835.1815125,335.1111111111111L837.3685958333334,335.1087341838413L839.5556791666667,335.10897387398614L841.7427624999999,335.11091136932373L843.9298458333333,335.11087142096625L846.1169291666666,335.11107116275366L848.3040125,335.1073160171509L850.4910958333334,335.1015434794956L852.6781791666667,335.10803508758545L854.8652625000001,335.1081549326579L857.0523458333333,335.1111111111111L859.2394291666666,335.11061175664264" style="fill: none;" fill="none"></path></g></g></g></g></g></g><g transform="translate(48, 377)" clip-path="url(#clip_1)"><clipPath id="clip_1"><rect width="984" height="23"></rect></clipPath><g><g><line x1="0" y1="0" x2="0" y2="5" style="visibility: inherit;" fill="rgb(0, 0, 0)" stroke="rgb(204, 204, 204)" stroke-width="1px"></line><line x1="109.35416666666666" y1="0" x2="109.35416666666666" y2="5" style="visibility: inherit;" fill="rgb(0, 0, 0)" stroke="rgb(204, 204, 204)" stroke-width="1px"></line><line x1="218.70833333333331" y1="0" x2="218.70833333333331" y2="5" style="visibility: inherit;" fill="rgb(0, 0, 0)" stroke="rgb(204, 204, 204)" stroke-width="1px"></line><line x1="328.0625" y1="0" x2="328.0625" y2="5" style="visibility: inherit;" fill="rgb(0, 0, 0)" stroke="rgb(204, 204, 204)" stroke-width="1px"></line><line x1="437.41666666666663" y1="0" x2="437.41666666666663" y2="5" style="visibility: inherit;" fill="rgb(0, 0, 0)" stroke="rgb(204, 204, 204)" stroke-width="1px"></line><line x1="546.7708333333334" y1="0" x2="546.7708333333334" y2="5" style="visibility: inherit;" fill="rgb(0, 0, 0)" stroke="rgb(204, 204, 204)" stroke-width="1px"></line><line x1="656.125" y1="0" x2="656.125" y2="5" style="visibility: inherit;" fill="rgb(0, 0, 0)" stroke="rgb(204, 204, 204)" stroke-width="1px"></line><line x1="765.4791666666666" y1="0" x2="765.4791666666666" y2="5" style="visibility: inherit;" fill="rgb(0, 0, 0)" stroke="rgb(204, 204, 204)" stroke-width="1px"></line><line x1="874.8333333333333" y1="0" x2="874.8333333333333" y2="5" style="visibility: inherit;" fill="rgb(0, 0, 0)" stroke="rgb(204, 204, 204)" stroke-width="1px"></line><line x1="984.1875" y1="0" x2="984.1875" y2="5" style="visibility: inherit;" fill="rgb(0, 0, 0)" stroke="rgb(204, 204, 204)" stroke-width="1px"></line></g><g transform="translate(0, 8)"><text x="0" y="0" dx="0em" dy="0.95em" style="text-anchor: middle; visibility: hidden; font-family: &quot;Helvetica Neue&quot;, sans-serif; font-size: 12px; font-weight: 200;" fill="rgb(50, 49, 63)" stroke="none" stroke-width="1px">-5k</text><text x="109.35416666666666" y="0" dx="0em" dy="0.95em" style="text-anchor: middle; visibility: inherit; font-family: &quot;Helvetica Neue&quot;, sans-serif; font-size: 12px; font-weight: 200;" fill="rgb(50, 49, 63)" stroke="none" stroke-width="1px">0</text><text x="218.70833333333331" y="0" dx="0em" dy="0.95em" style="text-anchor: middle; visibility: inherit; font-family: &quot;Helvetica Neue&quot;, sans-serif; font-size: 12px; font-weight: 200;" fill="rgb(50, 49, 63)" stroke="none" stroke-width="1px">5k</text><text x="328.0625" y="0" dx="0em" dy="0.95em" style="text-anchor: middle; visibility: inherit; font-family: &quot;Helvetica Neue&quot;, sans-serif; font-size: 12px; font-weight: 200;" fill="rgb(50, 49, 63)" stroke="none" stroke-width="1px">10k</text><text x="437.41666666666663" y="0" dx="0em" dy="0.95em" style="text-anchor: middle; visibility: inherit; font-family: &quot;Helvetica Neue&quot;, sans-serif; font-size: 12px; font-weight: 200;" fill="rgb(50, 49, 63)" stroke="none" stroke-width="1px">15k</text><text x="546.7708333333334" y="0" dx="0em" dy="0.95em" style="text-anchor: middle; visibility: inherit; font-family: &quot;Helvetica Neue&quot;, sans-serif; font-size: 12px; font-weight: 200;" fill="rgb(50, 49, 63)" stroke="none" stroke-width="1px">20k</text><text x="656.125" y="0" dx="0em" dy="0.95em" style="text-anchor: middle; visibility: inherit; font-family: &quot;Helvetica Neue&quot;, sans-serif; font-size: 12px; font-weight: 200;" fill="rgb(50, 49, 63)" stroke="none" stroke-width="1px">25k</text><text x="765.4791666666666" y="0" dx="0em" dy="0.95em" style="text-anchor: middle; visibility: inherit; font-family: &quot;Helvetica Neue&quot;, sans-serif; font-size: 12px; font-weight: 200;" fill="rgb(50, 49, 63)" stroke="none" stroke-width="1px">30k</text><text x="874.8333333333333" y="0" dx="0em" dy="0.95em" style="text-anchor: middle; visibility: inherit; font-family: &quot;Helvetica Neue&quot;, sans-serif; font-size: 12px; font-weight: 200;" fill="rgb(50, 49, 63)" stroke="none" stroke-width="1px">35k</text><text x="984.1875" y="0" dx="0em" dy="0.95em" style="text-anchor: middle; visibility: hidden; font-family: &quot;Helvetica Neue&quot;, sans-serif; font-size: 12px; font-weight: 200;" fill="rgb(50, 49, 63)" stroke="none" stroke-width="1px">40k</text></g><line x1="0" y1="0" x2="984.1875" y2="0" fill="rgb(0, 0, 0)" stroke="rgb(204, 204, 204)" stroke-width="1px"></line></g></g></g></g></svg>